<svg width="433" height="421" viewBox="0 0 433 421" fill="none" xmlns="http://www.w3.org/2000/svg">
<path d="M89.41 22.2544C89.41 22.2544 94.72 18.0644 96.08 15.3744C97.24 13.0844 98.08 9.8444 96.88 7.3744C96.6162 6.79358 96.2332 6.27472 95.7559 5.8515C95.2786 5.42829 94.7176 5.11017 94.1094 4.9178C93.5011 4.72543 92.8593 4.66311 92.2254 4.73488C91.5915 4.80665 90.9798 5.01091 90.43 5.3344C87.16 7.3344 86.81 14.3344 87.64 17.6344C87.71 17.9244 89.36 22.3344 89.41 22.2544Z" fill="#92E3A9"/>
<path d="M40.34 57.1844C40.55 57.3844 44.34 60.1244 44.34 60.0544C44.34 59.9844 46.49 53.6344 46.13 50.6444C45.83 48.0944 44.74 44.9244 42.4 43.5544C41.8599 43.2118 41.2538 42.9867 40.6211 42.8937C39.9883 42.8007 39.3431 42.8418 38.7273 43.0144C38.1114 43.187 37.5388 43.4872 37.0465 43.8955C36.5543 44.3038 36.1534 44.8111 35.87 45.3844C34.27 48.8844 37.8 54.8544 40.34 57.1844Z" fill="#92E3A9"/>
<path d="M151.56 28.6044C151.56 28.6044 132.13 48.6644 132.23 73.3344C132.33 98.0044 151.95 117.864 151.95 117.864C151.95 117.864 171.38 97.8044 171.27 73.1644C171.16 48.5244 151.56 28.6044 151.56 28.6044Z" fill="#92E3A9"/>
<path d="M123.85 88.0644C124.109 87.7862 124.346 87.4887 124.56 87.1744C125.97 85.0344 127.18 81.9144 126.27 79.3544C126.077 78.7455 125.758 78.184 125.334 77.7063C124.909 77.2287 124.39 76.8454 123.808 76.5814C123.226 76.3174 122.596 76.1786 121.957 76.174C121.318 76.1693 120.685 76.2989 120.1 76.5544C117.46 77.8044 116.16 82.0344 115.88 85.4944C114.88 85.2544 113.88 85.0644 113.07 84.9344C112.72 84.1444 112.37 83.3544 112.01 82.5644C111.65 81.7744 111.36 80.9144 111.01 80.0844C110.54 78.8544 110.12 77.5644 109.7 76.2744C111.24 75.5844 115.7 73.4944 117.38 71.6444C119.06 69.7944 120.77 66.8444 120.26 64.1744C120.162 63.5422 119.933 62.9376 119.586 62.4002C119.239 61.8628 118.783 61.4045 118.247 61.0554C117.711 60.7063 117.107 60.474 116.475 60.3739C115.843 60.2738 115.198 60.308 114.58 60.4744C110.89 61.5644 108.72 68.1644 108.65 71.5944C108.65 71.7044 108.65 72.4344 108.78 73.3044C108.41 72.0244 108.03 70.7644 107.7 69.4644C106.75 65.7744 105.9 61.9844 105.03 58.1944C104.85 57.4044 104.66 56.6144 104.47 55.8244C105.77 55.2544 110.64 53.0244 112.39 51.0944C114.14 49.1644 115.77 46.2944 115.26 43.6244C115.164 42.9915 114.935 42.386 114.589 41.8478C114.242 41.3095 113.786 40.8506 113.249 40.5012C112.713 40.1518 112.109 39.9198 111.476 39.8204C110.844 39.721 110.198 39.7564 109.58 39.9244C105.9 41.0144 103.73 47.6144 103.65 51.0444C103.65 51.1744 103.72 52.0444 103.81 53.0444C103.31 50.9844 102.81 48.9444 102.2 46.9344C101.218 43.4836 100.005 40.1027 98.57 36.8144C99.03 36.6144 104.79 34.1244 106.73 31.9744C108.45 30.0644 110.12 27.1644 109.61 24.4944C109.511 23.8629 109.28 23.2593 108.933 22.7226C108.586 22.186 108.129 21.7285 107.594 21.3796C107.058 21.0307 106.455 20.7983 105.824 20.6975C105.193 20.5967 104.548 20.6297 103.93 20.7944C100.24 21.8944 98.07 28.4844 98 31.9244C98 32.1644 98.28 35.3044 98.42 36.4244V36.3044C96.9299 33.1076 95.1596 30.0489 93.13 27.1644C91.3299 24.5823 89.3799 22.1081 87.29 19.7544C85.38 17.5444 83.49 15.6444 81.8 13.9744C80.89 13.0744 80.03 12.2744 79.22 11.5344H79.3C79.37 11.5344 77.5 7.24439 77.36 6.98439C75.63 3.98439 70.55 -0.725618 66.79 0.0943824C66.1673 0.247723 65.584 0.530676 65.0781 0.924766C64.5722 1.31886 64.1551 1.81522 63.854 2.38145C63.553 2.94767 63.3748 3.57103 63.331 4.21082C63.2872 4.8506 63.3789 5.49243 63.6 6.09438C64.44 8.67438 67.3 10.4244 69.73 11.2544C72.16 12.0844 77.65 11.7044 78.99 11.5844C79.82 12.3644 80.69 13.2144 81.63 14.1744C83.27 15.8844 85.11 17.8144 86.97 20.0544C87.47 20.6544 87.97 21.3144 88.48 21.9444C87.41 21.0544 85.92 19.8644 85.76 19.7644C82.86 17.9144 76.17 16.0544 73.21 18.5144C72.7302 18.9371 72.3447 19.4559 72.0785 20.0373C71.8123 20.6186 71.6713 21.2494 71.6647 21.8888C71.6581 22.5282 71.786 23.1618 72.0402 23.7485C72.2944 24.3352 72.6691 24.8619 73.14 25.2944C75.07 27.1944 78.41 27.4244 80.95 27.0544C83.49 26.6844 88.34 23.7044 89.36 23.0544C90.46 24.4744 91.56 25.9544 92.61 27.5644C94.5449 30.453 96.2182 33.5084 97.61 36.6944C97.69 36.8844 97.75 37.0844 97.82 37.2644C97.37 36.7344 94.67 34.0044 94.45 33.8344C91.77 31.6844 85.33 29.1044 82.12 31.2244C81.5952 31.5904 81.1535 32.0629 80.8237 32.6112C80.4939 33.1594 80.2835 33.771 80.2061 34.4061C80.1287 35.0412 80.1861 35.6855 80.3746 36.2969C80.5631 36.9083 80.8784 37.4731 81.3 37.9544C83.01 40.0544 86.3 40.6544 88.87 40.5544C91.87 40.4544 97.65 37.5544 97.87 37.4044C99.1815 40.6188 100.281 43.9159 101.16 47.2744C101.82 49.7544 102.39 52.2744 102.94 54.8544C102.34 54.1744 99.82 51.6444 99.62 51.4744C96.94 49.3244 90.5 46.7444 87.28 48.8644C86.7565 49.2314 86.316 49.7043 85.9871 50.2526C85.6583 50.8008 85.4484 51.4121 85.371 52.0467C85.2937 52.6814 85.3507 53.3252 85.5383 53.9364C85.7259 54.5475 86.0399 55.1124 86.46 55.5944C88.18 57.6944 91.46 58.2944 94.04 58.1944C96.92 58.0944 102.52 55.3044 103.04 55.0644C103.29 56.2244 103.54 57.3844 103.78 58.5544C104.57 62.3544 105.34 66.1744 106.21 69.9144C106.52 71.2144 106.86 72.4844 107.21 73.7544C106.27 72.7544 104.52 71.0044 104.36 70.8744C101.68 68.7144 95.23 66.1344 92.02 68.2544C91.4952 68.6204 91.0535 69.0929 90.7237 69.6412C90.3939 70.1894 90.1835 70.801 90.1061 71.4361C90.0287 72.0712 90.0861 72.7155 90.2746 73.3269C90.4631 73.9383 90.7784 74.5031 91.2 74.9844C92.91 77.0944 96.2 77.6844 98.77 77.5944C101.34 77.5044 106.1 75.2544 107.43 74.5944C108.02 76.7044 108.64 78.7844 109.36 80.8044C109.69 81.6644 109.96 82.5644 110.36 83.3744L110.91 84.6644L110.16 84.5944C110.16 84.5944 110.16 85.8044 110.23 87.7544C107.4 85.7544 103.32 84.0044 100.67 85.2244C100.097 85.5078 99.5894 85.9087 99.1811 86.4009C98.7728 86.8932 98.4726 87.4658 98.3 88.0816C98.1274 88.6975 98.0863 89.3427 98.1793 89.9754C98.2724 90.6082 98.4975 91.2143 98.84 91.7544C99.0103 92.0426 99.2079 92.3138 99.43 92.5644C99.933 95.5493 101.193 98.3554 103.09 100.714C103.23 100.874 105.15 102.654 106.16 103.534C105.16 103.014 104.22 102.534 103.22 101.924C101.78 101.124 100.28 100.234 98.82 99.3744L96.49 97.8844C95.72 97.4144 95.04 96.8844 94.3 96.3644C93.23 95.5944 92.17 94.7544 91.11 93.9044C92.01 92.4844 94.59 88.2744 94.97 85.8144C95.35 83.3544 95.14 79.9344 93.24 77.9944C92.8124 77.5191 92.2896 77.139 91.7056 76.8788C91.1215 76.6187 90.4893 76.4842 89.85 76.4842C89.2106 76.4842 88.5784 76.6187 87.9944 76.8788C87.4104 77.139 86.8876 77.5191 86.46 77.9944C83.99 80.9944 85.82 87.6444 87.65 90.5544C87.71 90.6444 88.16 91.2244 88.65 91.8944C87.65 91.0444 86.65 90.1944 85.65 89.2944C82.83 86.7344 80.03 84.0444 77.21 81.3644L75.49 79.7344C76.26 78.5444 79.09 74.0044 79.49 71.4344C79.89 68.8644 79.66 65.5544 77.77 63.6044C77.3424 63.1291 76.8196 62.749 76.2356 62.4888C75.6515 62.2287 75.0193 62.0942 74.38 62.0942C73.7406 62.0942 73.1084 62.2287 72.5244 62.4888C71.9404 62.749 71.4176 63.1291 70.99 63.6044C68.52 66.6044 70.35 73.2444 72.18 76.1544C72.24 76.2644 72.78 76.9444 73.39 77.7044C71.84 76.2744 70.28 74.8544 68.68 73.5044C65.957 71.1678 63.0806 69.0164 60.07 67.0644C60.34 66.6444 63.77 61.3844 64.21 58.5244C64.59 55.9844 64.38 52.6444 62.48 50.7044C62.0533 50.2293 61.5314 49.8494 60.9482 49.5893C60.365 49.3292 59.7335 49.1948 59.095 49.1948C58.4564 49.1948 57.825 49.3292 57.2418 49.5893C56.6586 49.8494 56.1367 50.2293 55.71 50.7044C53.23 53.7044 55.06 60.3544 56.89 63.2644C57.02 63.4644 59 65.9344 59.73 66.7844L59.62 66.7144C56.6171 64.8651 53.4544 63.2888 50.17 62.0044C47.2304 60.8315 44.2254 59.8299 41.17 59.0044C38.35 58.2144 35.73 57.6744 33.41 57.2044C32.14 56.9644 30.99 56.7744 29.9 56.5944H29.97C30.02 56.5944 26.1 54.0044 25.83 53.8744C22.76 52.3444 15.91 51.2044 13.22 53.9544C12.7871 54.425 12.4581 54.9813 12.2541 55.5873C12.0502 56.1933 11.9761 56.8354 12.0364 57.4719C12.0968 58.1085 12.2903 58.7252 12.6045 59.2821C12.9186 59.839 13.3464 60.3236 13.86 60.7044C15.99 62.3944 19.33 62.2744 21.86 61.6344C24.39 60.9944 28.71 57.6344 29.76 56.7944C30.88 56.9944 32.08 57.2244 33.4 57.5044C35.71 58.0144 38.31 58.6144 41.09 59.5044C41.84 59.7344 42.63 60.0044 43.4 60.2444C42.01 60.1044 40.11 59.9244 39.92 59.9244C36.49 59.9944 29.92 62.1244 28.77 65.8144C28.6003 66.4306 28.5626 67.0757 28.6594 67.7075C28.7562 68.3392 28.9854 68.9435 29.3318 69.4806C29.6782 70.0177 30.1342 70.4756 30.6698 70.8244C31.2054 71.1731 31.8086 71.4048 32.44 71.5044C35.11 72.0244 38.02 70.3744 39.93 68.6644C41.84 66.9544 44.24 61.7944 44.74 60.6644C46.44 61.2344 48.17 61.8644 49.93 62.6644C53.1439 64.0052 56.2327 65.6282 59.16 67.5144C59.33 67.6244 59.49 67.7644 59.66 67.8744C58.99 67.6844 55.23 66.8744 54.96 66.8744C51.54 66.5544 44.74 67.9544 43.23 71.4944C42.9931 72.0868 42.8837 72.7225 42.909 73.36C42.9343 73.9975 43.0936 74.6225 43.3767 75.1943C43.6598 75.7661 44.0602 76.2718 44.5518 76.6785C45.0434 77.0851 45.6153 77.3836 46.23 77.5544C48.83 78.3644 51.9 77.0444 53.99 75.5544C56.4 73.8344 59.63 68.1644 59.75 67.9544C62.6168 69.9139 65.3526 72.0584 67.94 74.3744C69.86 76.0844 71.74 77.8844 73.61 79.7144C72.73 79.4844 69.24 78.7144 68.98 78.7144C65.56 78.3944 58.76 79.7944 57.25 83.3344C57.0147 83.9276 56.9065 84.5636 56.9324 85.2013C56.9584 85.839 57.1179 86.4641 57.4007 87.0363C57.6835 87.6084 58.0832 88.1148 58.574 88.5227C59.0648 88.9307 59.6358 89.231 60.25 89.4044C62.85 90.2144 65.92 88.8944 68.01 87.4044C70.36 85.7244 73.48 80.3144 73.75 79.8544L76.29 82.3544C79.04 85.0944 81.79 87.8544 84.59 90.4944C85.59 91.4044 86.59 92.2744 87.53 93.1444C86.2 92.8444 83.77 92.3344 83.53 92.3144C80.1 92.0044 73.31 93.4044 71.79 96.9444C71.5547 97.5369 71.4466 98.1723 71.4726 98.8093C71.4987 99.4463 71.6583 100.071 71.9411 100.642C72.224 101.213 72.6238 101.719 73.1145 102.126C73.6053 102.533 74.1761 102.832 74.79 103.004C77.38 103.814 80.46 102.494 82.55 101.004C84.64 99.5144 87.37 95.0044 88.12 93.7344C89.77 95.1644 91.44 96.5544 93.12 97.8444C93.87 98.3844 94.6 98.9844 95.35 99.4644L97.56 100.944C99.1 101.944 100.56 102.794 102 103.644C102.73 104.084 103.43 104.474 104.15 104.894C102.85 104.384 100.78 103.614 100.58 103.564C97.25 102.734 90.31 103.084 88.28 106.354C87.9577 106.907 87.7555 107.521 87.6865 108.156C87.6175 108.792 87.6833 109.435 87.8795 110.044C88.0758 110.652 88.3981 111.213 88.8255 111.689C89.2529 112.164 89.7758 112.544 90.36 112.804C92.8 114.004 96.04 113.164 98.36 112.004C100.88 110.724 104.68 106.004 105.14 105.444C106.91 106.444 108.64 107.444 110.27 108.284C114.63 110.624 118.44 112.484 121.39 113.864C130.99 122.164 144.5 123.084 144.5 123.084C144.5 123.084 145.21 106.904 135.69 96.2544C132.387 92.6949 128.346 89.8998 123.85 88.0644ZM106.72 103.834C107.02 103.174 109.32 98.0344 109.48 95.1344C110.01 95.0344 110.55 94.9244 111.07 94.8044C112.055 99.9206 114.099 104.774 117.07 109.054C115.32 108.224 113.43 107.304 111.43 106.284C109.89 105.524 108.32 104.704 106.72 103.834Z" fill="#92E3A9"/>
<path d="M194.64 84.9644C194.64 84.9644 178.45 85.4644 168.54 95.7544C158.63 106.044 158.76 122.244 158.76 122.244C158.76 122.244 174.95 121.744 184.85 111.454C194.75 101.164 194.64 84.9644 194.64 84.9644Z" fill="#92E3A9"/>
<g opacity="0.5">
<path opacity="0.5" d="M89.41 22.2544C89.41 22.2544 94.72 18.0644 96.08 15.3744C97.24 13.0844 98.08 9.8444 96.88 7.3744C96.6162 6.79358 96.2332 6.27472 95.7559 5.8515C95.2786 5.42829 94.7176 5.11017 94.1094 4.9178C93.5011 4.72543 92.8593 4.66311 92.2254 4.73488C91.5915 4.80665 90.9798 5.01091 90.43 5.3344C87.16 7.3344 86.81 14.3344 87.64 17.6344C87.71 17.9244 89.36 22.3344 89.41 22.2544Z" fill="white"/>
<path opacity="0.5" d="M40.34 57.1844C40.55 57.3844 44.34 60.1244 44.34 60.0544C44.34 59.9844 46.49 53.6344 46.13 50.6444C45.83 48.0944 44.74 44.9244 42.4 43.5544C41.8599 43.2118 41.2538 42.9867 40.6211 42.8937C39.9883 42.8007 39.3431 42.8418 38.7273 43.0144C38.1114 43.187 37.5388 43.4872 37.0465 43.8955C36.5543 44.3038 36.1534 44.8111 35.87 45.3844C34.27 48.8844 37.8 54.8544 40.34 57.1844Z" fill="white"/>
<path opacity="0.5" d="M151.56 28.6044C151.56 28.6044 132.13 48.6644 132.23 73.3344C132.33 98.0044 151.95 117.864 151.95 117.864C151.95 117.864 171.38 97.8044 171.27 73.1644C171.16 48.5244 151.56 28.6044 151.56 28.6044Z" fill="white"/>
<path opacity="0.5" d="M123.85 88.0644C124.109 87.7862 124.346 87.4887 124.56 87.1744C125.97 85.0344 127.18 81.9144 126.27 79.3544C126.077 78.7455 125.758 78.184 125.334 77.7063C124.909 77.2287 124.39 76.8454 123.808 76.5814C123.226 76.3174 122.596 76.1786 121.957 76.174C121.318 76.1693 120.685 76.2989 120.1 76.5544C117.46 77.8044 116.16 82.0344 115.88 85.4944C114.88 85.2544 113.88 85.0644 113.07 84.9344C112.72 84.1444 112.37 83.3544 112.01 82.5644C111.65 81.7744 111.36 80.9144 111.01 80.0844C110.54 78.8544 110.12 77.5644 109.7 76.2744C111.24 75.5844 115.7 73.4944 117.38 71.6444C119.06 69.7944 120.77 66.8444 120.26 64.1744C120.162 63.5422 119.933 62.9376 119.586 62.4002C119.239 61.8628 118.783 61.4045 118.247 61.0554C117.711 60.7063 117.107 60.474 116.475 60.3739C115.843 60.2738 115.198 60.308 114.58 60.4744C110.89 61.5644 108.72 68.1644 108.65 71.5944C108.65 71.7044 108.65 72.4344 108.78 73.3044C108.41 72.0244 108.03 70.7644 107.7 69.4644C106.75 65.7744 105.9 61.9844 105.03 58.1944C104.85 57.4044 104.66 56.6144 104.47 55.8244C105.77 55.2544 110.64 53.0244 112.39 51.0944C114.14 49.1644 115.77 46.2944 115.26 43.6244C115.164 42.9915 114.935 42.386 114.589 41.8478C114.242 41.3095 113.786 40.8506 113.249 40.5012C112.713 40.1518 112.109 39.9198 111.476 39.8204C110.844 39.721 110.198 39.7564 109.58 39.9244C105.9 41.0144 103.73 47.6144 103.65 51.0444C103.65 51.1744 103.72 52.0444 103.81 53.0444C103.31 50.9844 102.81 48.9444 102.2 46.9344C101.218 43.4836 100.005 40.1027 98.57 36.8144C99.03 36.6144 104.79 34.1244 106.73 31.9744C108.45 30.0644 110.12 27.1644 109.61 24.4944C109.511 23.8629 109.28 23.2593 108.933 22.7226C108.586 22.186 108.129 21.7285 107.594 21.3796C107.058 21.0307 106.455 20.7983 105.824 20.6975C105.193 20.5967 104.548 20.6297 103.93 20.7944C100.24 21.8944 98.07 28.4844 98 31.9244C98 32.1644 98.28 35.3044 98.42 36.4244V36.3044C96.9299 33.1076 95.1596 30.0489 93.13 27.1644C91.3299 24.5823 89.3799 22.1081 87.29 19.7544C85.38 17.5444 83.49 15.6444 81.8 13.9744C80.89 13.0744 80.03 12.2744 79.22 11.5344H79.3C79.37 11.5344 77.5 7.24439 77.36 6.98439C75.63 3.98439 70.55 -0.725618 66.79 0.0943824C66.1673 0.247723 65.584 0.530676 65.0781 0.924766C64.5722 1.31886 64.1551 1.81522 63.854 2.38145C63.553 2.94767 63.3748 3.57103 63.331 4.21082C63.2872 4.8506 63.3789 5.49243 63.6 6.09438C64.44 8.67438 67.3 10.4244 69.73 11.2544C72.16 12.0844 77.65 11.7044 78.99 11.5844C79.82 12.3644 80.69 13.2144 81.63 14.1744C83.27 15.8844 85.11 17.8144 86.97 20.0544C87.47 20.6544 87.97 21.3144 88.48 21.9444C87.41 21.0544 85.92 19.8644 85.76 19.7644C82.86 17.9144 76.17 16.0544 73.21 18.5144C72.7302 18.9371 72.3447 19.4559 72.0785 20.0373C71.8123 20.6186 71.6713 21.2494 71.6647 21.8888C71.6581 22.5282 71.786 23.1618 72.0402 23.7485C72.2944 24.3352 72.6691 24.8619 73.14 25.2944C75.07 27.1944 78.41 27.4244 80.95 27.0544C83.49 26.6844 88.34 23.7044 89.36 23.0544C90.46 24.4744 91.56 25.9544 92.61 27.5644C94.5449 30.453 96.2182 33.5084 97.61 36.6944C97.69 36.8844 97.75 37.0844 97.82 37.2644C97.37 36.7344 94.67 34.0044 94.45 33.8344C91.77 31.6844 85.33 29.1044 82.12 31.2244C81.5952 31.5904 81.1535 32.0629 80.8237 32.6112C80.4939 33.1594 80.2835 33.771 80.2061 34.4061C80.1287 35.0412 80.1861 35.6855 80.3746 36.2969C80.5631 36.9083 80.8784 37.4731 81.3 37.9544C83.01 40.0544 86.3 40.6544 88.87 40.5544C91.87 40.4544 97.65 37.5544 97.87 37.4044C99.1815 40.6188 100.281 43.9159 101.16 47.2744C101.82 49.7544 102.39 52.2744 102.94 54.8544C102.34 54.1744 99.82 51.6444 99.62 51.4744C96.94 49.3244 90.5 46.7444 87.28 48.8644C86.7565 49.2314 86.316 49.7043 85.9871 50.2526C85.6583 50.8008 85.4484 51.4121 85.371 52.0467C85.2937 52.6814 85.3507 53.3252 85.5383 53.9364C85.7259 54.5475 86.0399 55.1124 86.46 55.5944C88.18 57.6944 91.46 58.2944 94.04 58.1944C96.92 58.0944 102.52 55.3044 103.04 55.0644C103.29 56.2244 103.54 57.3844 103.78 58.5544C104.57 62.3544 105.34 66.1744 106.21 69.9144C106.52 71.2144 106.86 72.4844 107.21 73.7544C106.27 72.7544 104.52 71.0044 104.36 70.8744C101.68 68.7144 95.23 66.1344 92.02 68.2544C91.4952 68.6204 91.0535 69.0929 90.7237 69.6412C90.3939 70.1894 90.1835 70.801 90.1061 71.4361C90.0287 72.0712 90.0861 72.7155 90.2746 73.3269C90.4631 73.9383 90.7784 74.5031 91.2 74.9844C92.91 77.0944 96.2 77.6844 98.77 77.5944C101.34 77.5044 106.1 75.2544 107.43 74.5944C108.02 76.7044 108.64 78.7844 109.36 80.8044C109.69 81.6644 109.96 82.5644 110.36 83.3744L110.91 84.6644L110.16 84.5944C110.16 84.5944 110.16 85.8044 110.23 87.7544C107.4 85.7544 103.32 84.0044 100.67 85.2244C100.097 85.5078 99.5894 85.9087 99.1811 86.4009C98.7728 86.8932 98.4726 87.4658 98.3 88.0816C98.1274 88.6975 98.0863 89.3427 98.1793 89.9754C98.2724 90.6082 98.4975 91.2143 98.84 91.7544C99.0103 92.0426 99.2079 92.3138 99.43 92.5644C99.933 95.5493 101.193 98.3554 103.09 100.714C103.23 100.874 105.15 102.654 106.16 103.534C105.16 103.014 104.22 102.534 103.22 101.924C101.78 101.124 100.28 100.234 98.82 99.3744L96.49 97.8844C95.72 97.4144 95.04 96.8844 94.3 96.3644C93.23 95.5944 92.17 94.7544 91.11 93.9044C92.01 92.4844 94.59 88.2744 94.97 85.8144C95.35 83.3544 95.14 79.9344 93.24 77.9944C92.8124 77.5191 92.2896 77.139 91.7056 76.8788C91.1215 76.6187 90.4893 76.4842 89.85 76.4842C89.2106 76.4842 88.5784 76.6187 87.9944 76.8788C87.4104 77.139 86.8876 77.5191 86.46 77.9944C83.99 80.9944 85.82 87.6444 87.65 90.5544C87.71 90.6444 88.16 91.2244 88.65 91.8944C87.65 91.0444 86.65 90.1944 85.65 89.2944C82.83 86.7344 80.03 84.0444 77.21 81.3644L75.49 79.7344C76.26 78.5444 79.09 74.0044 79.49 71.4344C79.89 68.8644 79.66 65.5544 77.77 63.6044C77.3424 63.1291 76.8196 62.749 76.2356 62.4888C75.6515 62.2287 75.0193 62.0942 74.38 62.0942C73.7406 62.0942 73.1084 62.2287 72.5244 62.4888C71.9404 62.749 71.4176 63.1291 70.99 63.6044C68.52 66.6044 70.35 73.2444 72.18 76.1544C72.24 76.2644 72.78 76.9444 73.39 77.7044C71.84 76.2744 70.28 74.8544 68.68 73.5044C65.957 71.1678 63.0806 69.0164 60.07 67.0644C60.34 66.6444 63.77 61.3844 64.21 58.5244C64.59 55.9844 64.38 52.6444 62.48 50.7044C62.0533 50.2293 61.5314 49.8494 60.9482 49.5893C60.365 49.3292 59.7335 49.1948 59.095 49.1948C58.4564 49.1948 57.825 49.3292 57.2418 49.5893C56.6586 49.8494 56.1367 50.2293 55.71 50.7044C53.23 53.7044 55.06 60.3544 56.89 63.2644C57.02 63.4644 59 65.9344 59.73 66.7844L59.62 66.7144C56.6171 64.8651 53.4544 63.2888 50.17 62.0044C47.2304 60.8315 44.2254 59.8299 41.17 59.0044C38.35 58.2144 35.73 57.6744 33.41 57.2044C32.14 56.9644 30.99 56.7744 29.9 56.5944H29.97C30.02 56.5944 26.1 54.0044 25.83 53.8744C22.76 52.3444 15.91 51.2044 13.22 53.9544C12.7871 54.425 12.4581 54.9813 12.2541 55.5873C12.0502 56.1933 11.9761 56.8354 12.0364 57.4719C12.0968 58.1085 12.2903 58.7252 12.6045 59.2821C12.9186 59.839 13.3464 60.3236 13.86 60.7044C15.99 62.3944 19.33 62.2744 21.86 61.6344C24.39 60.9944 28.71 57.6344 29.76 56.7944C30.88 56.9944 32.08 57.2244 33.4 57.5044C35.71 58.0144 38.31 58.6144 41.09 59.5044C41.84 59.7344 42.63 60.0044 43.4 60.2444C42.01 60.1044 40.11 59.9244 39.92 59.9244C36.49 59.9944 29.92 62.1244 28.77 65.8144C28.6003 66.4306 28.5626 67.0757 28.6594 67.7075C28.7562 68.3392 28.9854 68.9435 29.3318 69.4806C29.6782 70.0177 30.1342 70.4756 30.6698 70.8244C31.2054 71.1731 31.8086 71.4048 32.44 71.5044C35.11 72.0244 38.02 70.3744 39.93 68.6644C41.84 66.9544 44.24 61.7944 44.74 60.6644C46.44 61.2344 48.17 61.8644 49.93 62.6644C53.1439 64.0052 56.2327 65.6282 59.16 67.5144C59.33 67.6244 59.49 67.7644 59.66 67.8744C58.99 67.6844 55.23 66.8744 54.96 66.8744C51.54 66.5544 44.74 67.9544 43.23 71.4944C42.9931 72.0868 42.8837 72.7225 42.909 73.36C42.9343 73.9975 43.0936 74.6225 43.3767 75.1943C43.6598 75.7661 44.0602 76.2718 44.5518 76.6785C45.0434 77.0851 45.6153 77.3836 46.23 77.5544C48.83 78.3644 51.9 77.0444 53.99 75.5544C56.4 73.8344 59.63 68.1644 59.75 67.9544C62.6168 69.9139 65.3526 72.0584 67.94 74.3744C69.86 76.0844 71.74 77.8844 73.61 79.7144C72.73 79.4844 69.24 78.7144 68.98 78.7144C65.56 78.3944 58.76 79.7944 57.25 83.3344C57.0147 83.9276 56.9065 84.5636 56.9324 85.2013C56.9584 85.839 57.1179 86.4641 57.4007 87.0363C57.6835 87.6084 58.0832 88.1148 58.574 88.5227C59.0648 88.9307 59.6358 89.231 60.25 89.4044C62.85 90.2144 65.92 88.8944 68.01 87.4044C70.36 85.7244 73.48 80.3144 73.75 79.8544L76.29 82.3544C79.04 85.0944 81.79 87.8544 84.59 90.4944C85.59 91.4044 86.59 92.2744 87.53 93.1444C86.2 92.8444 83.77 92.3344 83.53 92.3144C80.1 92.0044 73.31 93.4044 71.79 96.9444C71.5547 97.5369 71.4466 98.1723 71.4726 98.8093C71.4987 99.4463 71.6583 100.071 71.9411 100.642C72.224 101.213 72.6238 101.719 73.1145 102.126C73.6053 102.533 74.1761 102.832 74.79 103.004C77.38 103.814 80.46 102.494 82.55 101.004C84.64 99.5144 87.37 95.0044 88.12 93.7344C89.77 95.1644 91.44 96.5544 93.12 97.8444C93.87 98.3844 94.6 98.9844 95.35 99.4644L97.56 100.944C99.1 101.944 100.56 102.794 102 103.644C102.73 104.084 103.43 104.474 104.15 104.894C102.85 104.384 100.78 103.614 100.58 103.564C97.25 102.734 90.31 103.084 88.28 106.354C87.9577 106.907 87.7555 107.521 87.6865 108.156C87.6175 108.792 87.6833 109.435 87.8795 110.044C88.0758 110.652 88.3981 111.213 88.8255 111.689C89.2529 112.164 89.7758 112.544 90.36 112.804C92.8 114.004 96.04 113.164 98.36 112.004C100.88 110.724 104.68 106.004 105.14 105.444C106.91 106.444 108.64 107.444 110.27 108.284C114.63 110.624 118.44 112.484 121.39 113.864C130.99 122.164 144.5 123.084 144.5 123.084C144.5 123.084 145.21 106.904 135.69 96.2544C132.387 92.6949 128.346 89.8998 123.85 88.0644ZM106.72 103.834C107.02 103.174 109.32 98.0344 109.48 95.1344C110.01 95.0344 110.55 94.9244 111.07 94.8044C112.055 99.9206 114.099 104.774 117.07 109.054C115.32 108.224 113.43 107.304 111.43 106.284C109.89 105.524 108.32 104.704 106.72 103.834Z" fill="white"/>
<path opacity="0.5" d="M194.64 84.9644C194.64 84.9644 178.45 85.4644 168.54 95.7544C158.63 106.044 158.76 122.244 158.76 122.244C158.76 122.244 174.95 121.744 184.85 111.454C194.75 101.164 194.64 84.9644 194.64 84.9644Z" fill="white"/>
</g>
<path d="M152.36 95.3944L168.26 81.1044L167.58 80.3444L152.35 94.0344L152.27 75.2944L152.36 75.3544L165.8 55.6944L164.96 55.1144L152.27 73.6744L152.07 28.6044H151.05L151.18 59.2044L141.06 50.4444L140.4 51.2144L151.19 60.5544L151.28 82.4344L135.94 68.8544L135.27 69.6244L151.29 83.7944L151.37 103.714L139.84 94.6644L139.22 95.4744L151.38 105.014L151.44 117.834H152.46L152.36 95.3944Z" fill="white"/>
<path d="M137.71 100.914L136.7 100.794L135.42 112.114L128.59 104.484H128.61L126.87 90.7843L125.86 90.9143L127.41 103.164L110.44 84.1943L109.68 84.8743L121.2 97.7443L113.91 97.8343L113.92 98.8543L122.1 98.7543L130.17 107.784L118.77 107.794V108.814L131.08 108.804L138.42 117.004L130.38 117.494L130.45 118.504L139.29 117.974L144.18 123.444L144.94 122.764L136.33 113.134L137.71 100.914Z" fill="white"/>
<path d="M176.13 104.944L189.67 102.204L189.46 101.204L177.36 103.654L195 85.3244L194.27 84.6144L182.3 97.0544L181.66 89.7944L180.65 89.8844L181.36 98.0344L172.96 106.754L172.1 95.3844L171.08 95.4644L172.01 107.744L164.38 115.674L163.3 107.694L162.28 107.824L163.48 116.614L158.39 121.894L159.12 122.594L168.08 113.294L180.37 113.764L180.41 112.744L169.03 112.314L176.13 104.934V104.944Z" fill="white"/>
<path d="M201.39 394.074L82.29 176.644L0 204.494L26.69 256.394L25 253.494L20 255.154C19.5022 255.321 19.0463 255.593 18.6636 255.953C18.2809 256.312 17.9805 256.75 17.7829 257.236C17.5853 257.723 17.4953 258.246 17.5189 258.77C17.5426 259.295 17.6794 259.808 17.92 260.274L31.08 285.864C31.9188 287.501 33.2568 288.828 34.9 289.653C36.5433 290.478 38.4065 290.759 40.22 290.454L43.87 289.844L107.97 414.494L201.39 394.074Z" fill="#2E353A"/>
<path d="M278.33 82.7644C277.05 83.4638 275.545 83.6271 274.144 83.2185C272.744 82.8098 271.563 81.8626 270.86 80.5844L267.81 75.0144L82.29 176.644L201.39 394.074L386.92 292.454L322.08 174.084C321.381 172.806 321.218 171.302 321.627 169.903C322.035 168.505 322.983 167.325 324.26 166.624C324.894 166.277 325.453 165.809 325.906 165.245C326.358 164.682 326.696 164.035 326.898 163.341C327.101 162.647 327.164 161.921 327.086 161.202C327.007 160.484 326.788 159.788 326.44 159.154L285.79 84.9444C285.089 83.6669 283.91 82.7198 282.511 82.3111C281.112 81.9024 279.609 82.0654 278.33 82.7644V82.7644Z" fill="#92E3A9" stroke="#2E353A" stroke-linecap="round" stroke-linejoin="round"/>
<path d="M287.559 90.7867L136.886 144.498L208.827 346.309L359.5 292.597L287.559 90.7867Z" fill="white" stroke="#2E353A" stroke-linecap="round" stroke-linejoin="round"/>
<path d="M287.567 90.7942L136.894 144.506L163.397 218.853L314.07 165.142L287.567 90.7942Z" fill="white" stroke="#2E353A" stroke-linecap="round" stroke-linejoin="round"/>
<path d="M275.905 167.176C287.156 160.033 290.486 145.122 283.343 133.871C276.2 122.62 261.29 119.29 250.039 126.433C238.788 133.576 235.458 148.487 242.6 159.737C249.743 170.988 264.654 174.318 275.905 167.176Z" fill="#2E353A" stroke="#2E353A" stroke-linecap="round" stroke-linejoin="round"/>
<path d="M271.07 169.564C274.415 168.376 277.456 166.462 279.975 163.96C282.494 161.459 284.428 158.431 285.64 155.094C281.45 145.714 271.21 140.824 261.99 144.094C252.77 147.364 247.94 157.654 250.63 167.564C253.679 169.383 257.093 170.506 260.626 170.852C264.16 171.197 267.726 170.758 271.07 169.564Z" fill="white" stroke="#2E353A" stroke-linecap="round" stroke-linejoin="round"/>
<path d="M269.454 151.489C274.516 147.016 274.994 139.288 270.522 134.226C266.05 129.164 258.321 128.686 253.259 133.158C248.197 137.63 247.719 145.359 252.191 150.421C256.663 155.483 264.392 155.961 269.454 151.489Z" fill="white" stroke="#2E353A" stroke-linecap="round" stroke-linejoin="round"/>
<path d="M212.306 147.448L159.576 166.245L161.736 172.301L214.465 153.504L212.306 147.448Z" fill="white" stroke="#2E353A" stroke-linecap="round" stroke-linejoin="round"/>
<path d="M217.501 162L164.771 180.797L166.93 186.854L219.66 168.057L217.501 162Z" fill="white" stroke="#2E353A" stroke-linecap="round" stroke-linejoin="round"/>
<path d="M221.811 174.112L169.081 192.909L170.162 195.942L222.892 177.145L221.811 174.112Z" fill="#2E353A"/>
<path d="M224.405 181.39L171.675 200.187L172.757 203.22L225.486 184.423L224.405 181.39Z" fill="#2E353A"/>
<path d="M237.584 218.361L184.854 237.158L185.936 240.191L238.665 221.394L237.584 218.361Z" fill="#2E353A"/>
<path d="M239.956 225.035L187.226 243.832L188.307 246.865L241.037 228.068L239.956 225.035Z" fill="#2E353A"/>
<path d="M242.337 231.698L189.607 250.495L190.689 253.528L243.418 234.731L242.337 231.698Z" fill="#2E353A"/>
<path d="M309.102 192.863L256.372 211.66L257.454 214.693L310.183 195.896L309.102 192.863Z" fill="#2E353A"/>
<path d="M311.484 199.536L258.754 218.333L259.835 221.366L312.565 202.569L311.484 199.536Z" fill="#2E353A"/>
<path d="M313.856 206.203L261.126 225L262.207 228.033L314.937 209.236L313.856 206.203Z" fill="#2E353A"/>
<path d="M181.47 231.554L308.76 186.194" stroke="#2E353A" stroke-linecap="round" stroke-linejoin="round"/>
<path d="M249.9 252.908L197.17 271.705L198.252 274.738L250.981 255.941L249.9 252.908Z" fill="#2E353A"/>
<path d="M252.272 259.585L199.542 278.382L200.624 281.415L253.353 262.618L252.272 259.585Z" fill="#2E353A"/>
<path d="M254.654 266.249L201.924 285.046L203.005 288.079L255.735 269.282L254.654 266.249Z" fill="#2E353A"/>
<path d="M321.419 227.413L268.689 246.21L269.77 249.243L322.5 230.446L321.419 227.413Z" fill="#2E353A"/>
<path d="M323.8 234.087L271.07 252.884L272.152 255.917L324.881 237.12L323.8 234.087Z" fill="#2E353A"/>
<path d="M326.172 240.754L273.442 259.551L274.524 262.584L327.253 243.787L326.172 240.754Z" fill="#2E353A"/>
<path d="M193.78 266.104L321.07 220.744" stroke="#2E353A" stroke-linecap="round" stroke-linejoin="round"/>
<path d="M330.923 254.077L206.06 298.588L216.862 328.89L341.726 284.379L330.923 254.077Z" fill="#2E353A" stroke="#2E353A" stroke-linecap="round" stroke-linejoin="round"/>
<path d="M267.837 103.277L120.823 166.318L205.259 363.228L352.273 300.187L267.837 103.277Z" fill="white" stroke="#2E353A" stroke-linecap="round" stroke-linejoin="round"/>
<path d="M267.844 103.281L120.83 166.321L151.937 238.863L298.951 175.822L267.844 103.281Z" fill="white" stroke="#2E353A" stroke-linecap="round" stroke-linejoin="round"/>
<path d="M267.201 173.627C274.314 162.358 270.944 147.455 259.675 140.342C248.406 133.229 233.503 136.598 226.39 147.868C219.277 159.137 222.646 174.039 233.916 181.153C245.185 188.266 260.087 184.896 267.201 173.627Z" fill="#2E353A" stroke="#2E353A" stroke-linecap="round" stroke-linejoin="round"/>
<path d="M256.31 182.934C259.574 181.537 262.488 179.436 264.844 176.78C267.201 174.125 268.941 170.981 269.94 167.574C265.18 158.484 254.65 154.234 245.66 158.094C236.67 161.954 232.49 172.504 235.79 182.224C238.947 183.847 242.423 184.751 245.971 184.874C249.518 184.997 253.048 184.334 256.31 182.934V182.934Z" fill="white" stroke="#2E353A" stroke-linecap="round" stroke-linejoin="round"/>
<path d="M253.246 165.273C258.185 160.665 258.454 152.927 253.847 147.987C249.24 143.048 241.501 142.779 236.562 147.387C231.622 151.994 231.354 159.733 235.961 164.672C240.568 169.611 248.307 169.88 253.246 165.273Z" fill="white" stroke="#2E353A" stroke-linecap="round" stroke-linejoin="round"/>
<path d="M196.275 164.547L144.826 186.609L147.36 192.518L198.809 170.456L196.275 164.547Z" fill="white" stroke="#2E353A" stroke-linecap="round" stroke-linejoin="round"/>
<path d="M202.365 178.738L150.915 200.8L153.449 206.71L204.899 184.648L202.365 178.738Z" fill="white" stroke="#2E353A" stroke-linecap="round" stroke-linejoin="round"/>
<path d="M207.439 190.56L155.99 212.622L157.259 215.582L208.708 193.52L207.439 190.56Z" fill="#2E353A"/>
<path d="M210.481 197.658L159.032 219.719L160.301 222.679L211.75 200.617L210.481 197.658Z" fill="#2E353A"/>
<path d="M225.954 233.732L174.505 255.793L175.774 258.753L227.223 236.691L225.954 233.732Z" fill="#2E353A"/>
<path d="M228.744 240.235L177.295 262.297L178.564 265.256L230.013 243.195L228.744 240.235Z" fill="#2E353A"/>
<path d="M231.525 246.753L180.075 268.815L181.344 271.774L232.794 249.712L231.525 246.753Z" fill="#2E353A"/>
<path d="M295.729 203.822L244.28 225.884L245.549 228.843L296.998 206.781L295.729 203.822Z" fill="#2E353A"/>
<path d="M298.515 210.316L247.066 232.378L248.335 235.338L299.784 213.276L298.515 210.316Z" fill="#2E353A"/>
<path d="M301.315 216.83L249.865 238.892L251.134 241.851L302.584 219.789L301.315 216.83Z" fill="#2E353A"/>
<path d="M170.77 250.414L294.97 197.164" stroke="#2E353A" stroke-linecap="round" stroke-linejoin="round"/>
<path d="M240.404 267.448L188.954 289.51L190.223 292.469L241.673 270.407L240.404 267.448Z" fill="#2E353A"/>
<path d="M243.2 273.942L191.75 296.004L193.019 298.963L244.469 276.902L243.2 273.942Z" fill="#2E353A"/>
<path d="M245.99 280.456L194.54 302.518L195.809 305.477L247.259 283.415L245.99 280.456Z" fill="#2E353A"/>
<path d="M310.194 237.525L258.745 259.587L260.014 262.546L311.463 240.484L310.194 237.525Z" fill="#2E353A"/>
<path d="M312.98 244.019L261.53 266.081L262.799 269.04L314.249 246.979L312.98 244.019Z" fill="#2E353A"/>
<path d="M315.76 250.537L264.311 272.599L265.58 275.558L317.029 253.496L315.76 250.537Z" fill="#2E353A"/>
<path d="M185.22 284.124L309.42 230.874" stroke="#2E353A" stroke-linecap="round" stroke-linejoin="round"/>
<path d="M321.345 263.537L199.514 315.779L212.192 345.345L334.023 293.103L321.345 263.537Z" fill="#2E353A" stroke="#2E353A" stroke-linecap="round" stroke-linejoin="round"/>
<path d="M234.218 101.975L100.049 189.072L216.707 368.777L350.876 281.68L234.218 101.975Z" fill="white" stroke="#2E353A" stroke-linecap="round" stroke-linejoin="round"/>
<path d="M234.224 101.983L100.055 189.08L143.032 255.284L277.201 168.187L234.224 101.983Z" fill="white" stroke="#2E353A" stroke-linecap="round" stroke-linejoin="round"/>
<path d="M227.104 185.978C240.258 183.841 249.189 171.444 247.051 158.29C244.914 145.136 232.517 136.206 219.363 138.343C206.209 140.481 197.278 152.877 199.416 166.031C201.554 179.185 213.95 188.116 227.104 185.978Z" fill="#2E353A" stroke="#2E353A" stroke-linecap="round" stroke-linejoin="round"/>
<path d="M236.39 182.334C239.37 180.404 241.885 177.838 243.758 174.821C245.63 171.805 246.812 168.411 247.22 164.884C240.98 156.724 229.88 154.344 221.68 159.664C213.48 164.984 211.14 176.104 216.05 185.124C219.436 186.188 223.016 186.49 226.533 186.008C230.049 185.525 233.415 184.271 236.39 182.334V182.334Z" fill="#92E3A9" stroke="#2E353A" stroke-linecap="round" stroke-linejoin="round"/>
<path d="M228.558 167.415C233.7 163.035 234.317 155.316 229.937 150.174C225.556 145.033 217.837 144.416 212.696 148.796C207.554 153.177 206.937 160.896 211.318 166.037C215.698 171.179 223.417 171.796 228.558 167.415Z" fill="white" stroke="#2E353A" stroke-linecap="round" stroke-linejoin="round"/>
<path d="M174.099 174.508L127.145 204.989L130.646 210.382L177.6 179.901L174.099 174.508Z" fill="white" stroke="#2E353A" stroke-linecap="round" stroke-linejoin="round"/>
<path d="M182.504 187.461L135.55 217.941L139.051 223.335L186.005 192.854L182.504 187.461Z" fill="white" stroke="#2E353A" stroke-linecap="round" stroke-linejoin="round"/>
<path d="M188.671 199.583L141.648 229.812L143.387 232.517L190.41 202.288L188.671 199.583Z" fill="#2E353A"/>
<path d="M193.722 204.724L146.768 235.205L148.521 237.906L195.475 207.425L193.722 204.724Z" fill="#2E353A"/>
<path d="M215.099 237.645L168.145 268.126L169.898 270.827L216.853 240.346L215.099 237.645Z" fill="#2E353A"/>
<path d="M218.953 243.591L171.999 274.072L173.752 276.773L220.706 246.292L218.953 243.591Z" fill="#2E353A"/>
<path d="M222.806 249.537L175.852 280.018L177.605 282.719L224.56 252.238L222.806 249.537Z" fill="#2E353A"/>
<path d="M278.787 196.299L231.833 226.78L233.586 229.48L280.54 199L278.787 196.299Z" fill="#2E353A"/>
<path d="M282.649 202.239L235.695 232.72L237.448 235.421L284.402 204.94L282.649 202.239Z" fill="#2E353A"/>
<path d="M286.503 208.185L239.548 238.666L241.302 241.367L288.256 210.886L286.503 208.185Z" fill="#2E353A"/>
<path d="M163.57 263.414L276.91 189.824" stroke="#2E353A" stroke-linecap="round" stroke-linejoin="round"/>
<path d="M235.073 268.42L188.119 298.901L189.873 301.602L236.827 271.121L235.073 268.42Z" fill="#2E353A"/>
<path d="M238.921 274.358L191.967 304.839L193.721 307.539L240.675 277.059L238.921 274.358Z" fill="#2E353A"/>
<path d="M242.783 280.288L195.829 310.769L197.583 313.47L244.537 282.989L242.783 280.288Z" fill="#2E353A"/>
<path d="M298.761 227.074L251.807 257.555L253.56 260.256L300.515 229.775L298.761 227.074Z" fill="#2E353A"/>
<path d="M302.618 233.006L255.664 263.487L257.417 266.188L304.371 235.707L302.618 233.006Z" fill="#2E353A"/>
<path d="M306.461 238.952L259.507 269.433L261.26 272.134L308.214 241.653L306.461 238.952Z" fill="#2E353A"/>
<path d="M183.54 294.174L296.88 220.594" stroke="#2E353A" stroke-linecap="round" stroke-linejoin="round"/>
<path d="M314.187 250.823L203 323.001L220.516 349.984L331.703 277.806L314.187 250.823Z" fill="#2E353A" stroke="#2E353A" stroke-linecap="round" stroke-linejoin="round"/>
<path d="M82.29 176.644L11.17 121.584L53.49 200.974C54.49 202.894 51.84 203.254 49.14 201.554C46.41 199.844 43.72 200.224 44.79 202.164L66.74 242.064C67.0888 242.633 67.5478 243.126 68.09 243.514L78.81 251.594C79.3676 251.988 79.8347 252.496 80.18 253.084L124.59 337.434L201.4 394.074L82.29 176.644Z" fill="#92E3A9" stroke="#2E353A" stroke-linecap="round" stroke-linejoin="round"/>
<path opacity="0.25" d="M82.29 176.644L11.17 121.584L53.49 200.974C54.49 202.894 51.84 203.254 49.14 201.554C46.41 199.844 43.72 200.224 44.79 202.164L66.74 242.064C67.0888 242.633 67.5478 243.126 68.09 243.514L78.81 251.594C79.3676 251.988 79.8347 252.496 80.18 253.084L124.59 337.434L201.4 394.074L82.29 176.644Z" fill="#2E353A" stroke="#2E353A" stroke-linecap="round" stroke-linejoin="round"/>
<path d="M385.22 297.854C385.205 297.818 385.176 297.789 385.14 297.774C383.97 297.264 374.14 297.354 373.88 297.934C373.88 298.004 373.93 298.094 374.08 298.194C374.29 298.326 374.511 298.44 374.74 298.534C375.02 298.654 375.36 298.784 375.74 298.914C376.12 299.044 376.48 299.174 376.87 299.294L378.54 299.814L379.42 300.074L380 300.234L369.82 310.084C367.699 312.02 365.473 313.836 363.15 315.524L362.69 315.064C362.025 314.421 361.32 313.82 360.58 313.264V313.004C359.718 313.553 358.819 314.041 357.89 314.464C354.41 316.214 344.65 320.594 341.17 327.614C339.426 331.177 337.489 334.642 335.37 337.994V338.454H335.09C331.72 338.164 325.3 340.404 320.58 342.734C316.549 344.963 312.668 347.452 308.96 350.184V350.184L305.3 351.474C303.97 351.664 301.53 351.974 301.19 352.384C300.85 352.794 298.48 352.384 297.43 352.644C296.38 352.904 296.68 353.644 296.68 353.644L298.68 353.834L285.49 358.424L296.1 366.844L310.49 361.504L311.26 361.694C312.794 362.166 314.453 362.019 315.88 361.284C316.388 361.094 316.885 360.877 317.37 360.634C320.03 360.284 328.12 358.504 330.93 357.884C333.04 360.744 339.06 365.554 340.09 367.634C340.139 367.744 340.179 367.858 340.21 367.974C340.21 367.974 340.21 368.024 340.21 368.054C340.231 368.14 340.231 368.229 340.21 368.314C339.734 369.478 339.112 370.577 338.36 371.584C336.99 371.019 335.575 370.567 334.13 370.234C328.66 368.974 325.67 374.654 324.72 374.934C323.77 375.214 322.61 376.054 323.72 376.854C324.83 377.654 323.15 378.394 322.47 379.474C322.047 380.328 321.761 381.242 321.62 382.184C318.01 382.494 314.92 383.984 314.12 386.184C313.12 388.994 322.23 391.054 322.23 391.054C322.23 391.054 334.84 395.984 344.46 392.894C354.08 389.804 353.71 384.654 354.46 381.894C355.21 379.134 363.06 372.344 371.87 367.614C380.68 362.884 384.51 358.614 376.13 352.204C370.63 347.994 365.79 345.974 361.8 345.814C361.9 345.574 362.01 345.334 362.12 345.104L362.32 344.664C362.44 344.414 362.58 344.174 362.71 343.924L362.91 343.564C363.12 343.204 363.34 342.854 363.58 342.504C363.998 341.911 364.362 341.282 364.67 340.624C365.642 338.592 365.899 336.291 365.4 334.094C365.229 333.461 365.135 332.81 365.12 332.154C365.32 330.844 367.5 325.694 368.06 323.404C368.081 323.245 368.081 323.084 368.06 322.924C367.98 322.278 367.776 321.654 367.46 321.084C369.71 319.744 374.24 317.304 376.32 314.994C378.4 312.684 382.95 304.454 384.65 300.234C384.72 300.064 384.78 299.894 384.84 299.734C384.9 299.584 384.95 299.424 385 299.284C385.04 299.144 385.08 299.014 385.12 298.894V298.844C385.12 298.744 385.18 298.634 385.2 298.544C385.195 298.528 385.195 298.511 385.2 298.494C385.2 298.404 385.2 298.324 385.2 298.254V298.184C385.205 298.131 385.205 298.078 385.2 298.024V297.944C385.2 297.944 385.23 297.884 385.22 297.854ZM332.09 354.144C329 355.004 321.88 357.254 318.09 358.514L311.09 352.104C312.79 351.224 316.56 349.584 320.84 347.744C324.809 346.258 328.926 345.202 333.12 344.594C333.468 345.238 333.695 345.939 333.79 346.664C334.19 347.904 334.691 349.108 335.29 350.264C334.486 351.754 333.399 353.072 332.09 354.144V354.144Z" fill="#2E353A"/>
<path d="M373.24 249.714C375.335 256.089 377.087 262.572 378.49 269.134C379.9 276.864 382.85 292.954 382.85 292.954C382.85 292.954 375.43 293.374 375.3 294.584C375.17 295.794 385.09 300.584 386.57 300.114C388.05 299.644 388.9 269.454 388.01 262.594C387.12 255.734 382.38 246.594 382.01 244.534C381.64 242.474 380.83 238.464 380.83 238.464L373.24 249.714Z" fill="white" stroke="#2E353A" stroke-linecap="round" stroke-linejoin="round"/>
<path d="M386.57 300.114C386.94 300.004 387.27 298.114 387.57 295.114C384.66 297.254 382.57 295.114 382.57 295.114L382.84 292.974C382.84 292.974 375.42 293.394 375.29 294.604C375.16 295.814 385.09 300.574 386.57 300.114Z" fill="#92E3A9" stroke="#2E353A" stroke-linecap="round" stroke-linejoin="round"/>
<path d="M368.83 159.264C368.83 159.264 357.05 147.124 355.3 146.264C353.55 145.404 352.94 147.264 353.44 148.314C353.94 149.364 365.92 165.244 367.95 167.314C369.98 169.384 368.83 159.264 368.83 159.264Z" fill="white" stroke="#2E353A" stroke-linecap="round" stroke-linejoin="round"/>
<path d="M338.27 124.874L322.48 136.254L341.16 163.204L355.6 151.054L338.27 124.874Z" fill="#2E353A" stroke="#2E353A" stroke-linecap="round" stroke-linejoin="round"/>
<path d="M338.38 127.804L325.02 137.434L340.83 160.244L353.05 149.964L338.38 127.804Z" fill="#92E3A9" stroke="#2E353A" stroke-linecap="round" stroke-linejoin="round"/>
<path d="M356.71 148.414C356.198 147.152 355.568 145.94 354.83 144.794C353.53 142.794 352.7 141.724 350.41 141.854C348.709 141.904 347.006 141.78 345.33 141.484C344.02 141.344 344 143.234 344.69 143.884C345.38 144.534 349.19 144.374 349.19 144.374C348.8 143.864 349.09 144.694 351.61 148.164C352.32 149.164 354.81 149.334 355.37 149.394" fill="white"/>
<path d="M356.71 148.414C356.198 147.152 355.568 145.94 354.83 144.794C353.53 142.794 352.7 141.724 350.41 141.854C348.709 141.904 347.006 141.78 345.33 141.484C344.02 141.344 344 143.234 344.69 143.884C345.38 144.534 349.19 144.374 349.19 144.374C348.8 143.864 349.09 144.694 351.61 148.164C352.32 149.164 354.81 149.334 355.37 149.394" stroke="#2E353A" stroke-linecap="round" stroke-linejoin="round"/>
<path d="M373.61 105.084C373.011 107.554 372.62 110.069 372.44 112.604C372.44 115.004 373.74 117.244 372.12 118.264C370.5 119.284 371.18 121.464 371.97 122.444C372.76 123.424 372.35 135.834 378.64 135.924C384.93 136.014 390.98 132.774 392.26 129.314C393.54 125.854 396.71 116.004 392.72 111.364C388.73 106.724 377.29 98.8843 373.61 105.084Z" fill="white" stroke="#2E353A" stroke-linecap="round" stroke-linejoin="round"/>
<path d="M373.85 116.574L374.84 118.394L373.64 118.434" stroke="#2E353A" stroke-linecap="round" stroke-linejoin="round"/>
<path d="M373.65 113.654C373.65 113.654 375.53 113.654 375.65 116.774" stroke="#2E353A" stroke-linecap="round" stroke-linejoin="round"/>
<path d="M383.64 134.064C383.879 136.859 383.879 139.669 383.64 142.464C383.565 142.92 383.383 143.352 383.11 143.724C386.234 141.58 389.588 139.792 393.11 138.394L394.11 138.014C393.598 133.77 393.345 129.499 393.35 125.224L383.64 134.064Z" fill="white" stroke="#2E353A" stroke-linecap="round" stroke-linejoin="round"/>
<path d="M356.81 253.764C356.81 253.764 356.27 267.314 357.41 271.944C358.55 276.574 362.76 314.874 362.58 318.334C362.4 321.794 362.26 323.214 362.26 323.214C362.26 323.214 351.85 324.734 350.79 325.034C349.73 325.334 349.38 326.724 355.14 328.374C360.9 330.024 365.33 332.554 366.56 330.644C367.79 328.734 369.46 321.644 369.95 316.474C371.1 304.474 373.07 290.994 371.89 284.934C370.71 278.874 367.64 271.334 368.06 269.334C368.48 267.334 374.98 245.334 374.98 245.334L356.81 253.764Z" fill="white" stroke="#2E353A" stroke-linecap="round" stroke-linejoin="round"/>
<path d="M366.56 330.644C367.195 329.326 367.63 327.921 367.85 326.474C364.8 328.084 361.05 325.804 361.05 325.804L362.26 323.214C362.26 323.214 351.85 324.734 350.79 325.034C349.73 325.334 349.38 326.724 355.14 328.374C360.9 330.024 365.33 332.554 366.56 330.644Z" fill="#92E3A9" stroke="#2E353A" stroke-linecap="round" stroke-linejoin="round"/>
<path d="M383.64 134.064C383.879 136.859 383.879 139.669 383.64 142.464C383.22 146.314 365.79 157.604 366.23 161.854C366.67 166.104 368.72 172.024 367.57 176.994C366.42 181.964 360.04 199.264 358.77 205.424C357.5 211.584 352.67 258.424 354.85 260.484C357.03 262.544 365.85 261.674 370.29 259.164C374.73 256.654 383.9 247.164 384.71 242.454C385.52 237.744 386.43 226.744 387.02 224.104C387.61 221.464 392.2 215.104 391.69 203.324C391.18 191.544 395.43 177.324 396.43 168.154C397.43 158.984 396.43 146.554 394.84 141.584C393.25 136.614 393.33 125.224 393.33 125.224L383.64 134.064Z" fill="#92E3A9" stroke="#2E353A" stroke-linecap="round" stroke-linejoin="round"/>
<path d="M384.69 242.454C385.51 237.744 386.41 226.744 387 224.104C387.59 221.464 392.18 215.104 391.67 203.324C391.38 196.864 392.54 189.664 393.81 182.954C390.48 186.114 381.81 193.474 372.56 194.334C365.87 194.964 363.69 193.014 363.06 191.194C361.21 196.774 359.37 202.424 358.75 205.424C357.47 211.584 352.65 258.424 354.83 260.484C357.01 262.544 365.83 261.674 370.27 259.164C374.71 256.654 383.88 247.164 384.69 242.454Z" fill="#2E353A" stroke="#2E353A" stroke-linecap="round" stroke-linejoin="round"/>
<path d="M382.8 228.794L369.3 252.314" stroke="white" stroke-width="0.5" stroke-linecap="round" stroke-linejoin="round"/>
<path d="M376.63 243.834L370.46 256.174" stroke="white" stroke-width="0.5" stroke-linecap="round" stroke-linejoin="round"/>
<path d="M427.14 150.744C424.53 139.434 417.14 135.524 410.62 131.614C407.62 129.824 406.62 126.764 406.48 123.964L406.15 126.964C405.986 125.546 405.986 124.113 406.15 122.694C406.26 122.034 406.4 121.324 406.56 120.554C406.418 121.672 406.385 122.8 406.46 123.924L407.13 117.664V117.734C408.13 112.124 408.58 104.654 402.7 96.8243C394.85 86.3643 379.15 90.0543 379.15 90.0543C379.15 90.0543 368.68 89.8043 368.03 95.7343C367.38 101.664 371.28 107.184 376.55 108.364C376.55 108.364 377.62 110.644 378.84 114.054C378.287 114.575 377.859 115.214 377.59 115.924C377.59 115.924 379.33 116.794 380.2 122.444C381.07 128.094 372.37 138.534 373.2 145.444C374.03 152.354 381.46 152.444 381.02 156.314C380.58 160.184 375.37 159.314 375.81 164.134C376.12 167.564 382.03 171.894 385.81 175.034C385.577 178.363 385.553 181.703 385.74 185.034C383.409 188.817 382.218 193.192 382.31 197.634C382.57 204.074 388.52 206.364 394.17 204.854C395.724 204.43 397.236 203.868 398.69 203.174C404.01 205.314 416.95 203.664 423.17 193.294C429.69 182.424 423.6 178.944 423.17 171.124C422.74 163.304 429.75 162.044 427.14 150.744Z" fill="#2E353A" stroke="#2E353A" stroke-linecap="round" stroke-linejoin="round"/>
<path d="M375.78 99.5443C378.939 103.752 382.783 107.399 387.15 110.334C395.41 115.554 389.76 131.204 383.24 138.154C376.72 145.104 378.02 151.634 385.41 155.104C392.8 158.574 405.84 162.494 398.41 175.104C390.98 187.714 390.15 197.704 401.02 200.754" stroke="white" stroke-width="0.5" stroke-linecap="round" stroke-linejoin="round"/>
<path d="M373.24 95.9744C373.24 95.9744 373.84 96.9744 374.94 98.4244" stroke="white" stroke-width="0.5" stroke-linecap="round" stroke-linejoin="round"/>
<path d="M410.31 199.264C411.027 199.435 411.77 199.461 412.497 199.339C413.224 199.217 413.918 198.95 414.54 198.554" stroke="white" stroke-width="0.5" stroke-linecap="round" stroke-linejoin="round"/>
<path d="M402.33 151.554C409.07 153.974 416.33 156.014 417.14 162.914C418.45 174.214 403.23 179.434 403.23 188.554C403.23 192.844 404.86 195.884 406.99 197.634" stroke="white" stroke-width="0.5" stroke-linecap="round" stroke-linejoin="round"/>
<path d="M387.15 110.334C387.15 110.334 397.58 114.244 400.15 120.764C402.72 127.284 386.68 136.854 391.89 145.114C393.5 147.654 396.38 149.244 399.65 150.564" stroke="white" stroke-width="0.5" stroke-linecap="round" stroke-linejoin="round"/>
<path d="M401.69 101.154C401.69 101.154 410.69 110.344 406.58 120.594C402.47 130.844 400.58 135.474 403.58 138.174C406.58 140.874 422.49 142.034 426.37 154.334" stroke="white" stroke-width="0.5" stroke-linecap="round" stroke-linejoin="round"/>
<path d="M365.13 187.524C365.13 187.524 356.03 180.804 351.73 173.364C347.43 165.924 343.81 159.604 343.9 158.794C343.99 157.984 344.43 153.934 343.17 152.364C341.91 150.794 337.61 148.884 337.05 148.414C336.49 147.944 335.32 149.254 336.62 150.414C337.92 151.574 339.21 152.954 339.21 152.954L330.85 150.814C330.643 151.164 330.547 151.569 330.576 151.974C330.604 152.38 330.756 152.767 331.01 153.084C331.93 154.004 334.56 154.284 334.65 155.324C334.74 156.364 337.4 158.324 338.53 159.224C339.011 159.702 339.607 160.046 340.26 160.224C340.26 160.224 345.05 176.314 348.42 183.034C351.79 189.754 356.92 197.034 360.49 198.034C364.06 199.034 368.44 192.754 368.44 192.754L365.13 187.524Z" fill="white" stroke="#2E353A" stroke-linecap="round" stroke-linejoin="round"/>
<path d="M380.94 155.264C380.94 155.264 376.07 158.624 374.55 163.164C373.03 167.704 365.27 178.734 364.15 181.484C363.641 182.855 362.948 184.151 362.09 185.334C362.09 185.334 363.09 191.334 367.23 194.494C371.37 197.654 372.65 197.344 372.65 197.344C372.65 197.344 387.65 172.964 390.07 167.294C392.49 161.624 387.39 152.484 380.94 155.264Z" fill="#92E3A9" stroke="#2E353A" stroke-linecap="round" stroke-linejoin="round"/>
</svg>
