<svg width="440" height="446" viewBox="0 0 440 446" fill="none" xmlns="http://www.w3.org/2000/svg">
<path d="M91.3363 287.108L82.9363 288.628L81.2863 279.528L71.3063 281.338L72.9563 290.438L64.5663 291.958L66.4363 302.288L74.8263 300.768L76.4763 309.868L86.4563 308.068L84.8063 298.958L93.2063 297.438L91.3363 287.108Z" stroke="#92E3A9" stroke-linecap="round" stroke-linejoin="round"/>
<path d="M175.196 147.708L167.146 144.868L170.226 136.148L160.666 132.768L157.586 141.488L149.536 138.648L146.046 148.548L154.086 151.388L151.006 160.118L160.566 163.488L163.656 154.768L171.696 157.608L175.196 147.708Z" stroke="#92E3A9" stroke-linecap="round" stroke-linejoin="round"/>
<path d="M378.236 251.928L370.696 255.918L366.366 247.738L357.396 252.478L361.726 260.658L354.186 264.648L359.096 273.928L366.636 269.938L370.966 278.108L379.936 273.368L375.606 265.188L383.146 261.198L378.236 251.928Z" stroke="#92E3A9" stroke-linecap="round" stroke-linejoin="round"/>
<path d="M56.2563 265.428C59.6362 265.428 62.3763 262.688 62.3763 259.308C62.3763 255.928 59.6362 253.188 56.2563 253.188C52.8763 253.188 50.1363 255.928 50.1363 259.308C50.1363 262.688 52.8763 265.428 56.2563 265.428Z" stroke="#92E3A9" stroke-linecap="round" stroke-linejoin="round"/>
<path d="M151.586 177.488C151.586 177.808 151.491 178.121 151.313 178.388C151.135 178.654 150.882 178.862 150.586 178.984C150.29 179.107 149.964 179.139 149.65 179.076C149.336 179.014 149.047 178.86 148.821 178.633C148.594 178.407 148.44 178.118 148.377 177.804C148.315 177.489 148.347 177.164 148.47 176.868C148.592 176.572 148.8 176.319 149.066 176.141C149.333 175.963 149.646 175.868 149.966 175.868C150.396 175.868 150.808 176.038 151.112 176.342C151.416 176.646 151.586 177.058 151.586 177.488V177.488Z" stroke="#92E3A9" stroke-linecap="round" stroke-linejoin="round"/>
<path d="M77.4563 149.698C77.4563 150.829 77.1208 151.935 76.4923 152.875C75.8638 153.816 74.9704 154.549 73.9252 154.982C72.88 155.415 71.7299 155.528 70.6203 155.308C69.5108 155.087 68.4916 154.542 67.6916 153.742C66.8917 152.942 66.3469 151.923 66.1262 150.814C65.9055 149.704 66.0187 148.554 66.4517 147.509C66.8846 146.463 67.6178 145.57 68.5584 144.942C69.4991 144.313 70.605 143.978 71.7363 143.978C73.2525 143.98 74.7059 144.584 75.778 145.656C76.8501 146.728 77.4536 148.181 77.4563 149.698V149.698Z" stroke="#92E3A9" stroke-linecap="round" stroke-linejoin="round"/>
<path d="M329.486 227.178C329.486 227.818 329.296 228.445 328.94 228.978C328.584 229.51 328.078 229.926 327.486 230.171C326.894 230.416 326.243 230.48 325.614 230.355C324.986 230.23 324.408 229.922 323.955 229.469C323.502 229.016 323.193 228.438 323.068 227.81C322.943 227.181 323.008 226.53 323.253 225.938C323.498 225.346 323.913 224.84 324.446 224.484C324.979 224.128 325.605 223.938 326.246 223.938C327.106 223.938 327.93 224.279 328.537 224.887C329.145 225.494 329.486 226.318 329.486 227.178V227.178Z" stroke="#92E3A9" stroke-linecap="round" stroke-linejoin="round"/>
<path d="M296.736 128.428C300.74 128.428 303.986 125.182 303.986 121.178C303.986 117.174 300.74 113.928 296.736 113.928C292.732 113.928 289.486 117.174 289.486 121.178C289.486 125.182 292.732 128.428 296.736 128.428Z" stroke="#92E3A9" stroke-linecap="round" stroke-linejoin="round"/>
<path d="M252.096 186.348C252.476 186.918 263.946 189.208 269.896 197.858C273.358 202.827 276.262 208.163 278.556 213.768C278.556 213.768 288.506 219.688 293.606 224.568C298.706 229.448 304.786 235.928 309.476 239.328C314.166 242.728 323.816 249.178 326.246 256.728C326.246 256.728 311.776 296.358 307.686 305.118C303.596 313.878 293.506 332.468 293.506 332.468L275.506 408.938H171.096L167.536 382.708C167.536 382.708 135.536 376.428 122.166 364.708C122.166 364.708 120.906 335.708 126.496 309.838C132.086 283.968 151.096 230.178 163.976 213.748C163.976 213.748 184.546 203.908 202.696 200.748C202.696 200.748 214.476 191.438 222.186 190.448C229.896 189.458 252.096 186.348 252.096 186.348Z" fill="white"/>
<path d="M168.946 394.528C178.216 396.298 186.296 397.828 195.736 397.718C205.176 397.608 214.816 395.488 222.536 390.078C224.028 388.836 225.718 387.856 227.536 387.178C231.636 386.028 235.696 388.738 239.766 389.998C244.926 391.598 250.586 390.838 255.646 388.918C260.706 386.998 265.256 384.008 269.766 381.028C269.1 390.228 268.883 399.444 269.116 408.678L275.546 408.938L292.016 336.468C292.016 336.468 263.846 369.188 250.116 378.958L223.776 372.178C223.776 372.178 221.296 374.238 216.076 375.278C216.076 375.278 213.686 384.468 200.246 384.488C186.806 384.508 167.536 382.708 167.536 382.708L168.946 394.528Z" fill="#92E3A9"/>
<path opacity="0.5" d="M168.946 394.528C178.216 396.298 186.296 397.828 195.736 397.718C205.176 397.608 214.816 395.488 222.536 390.078C224.028 388.836 225.718 387.856 227.536 387.178C231.636 386.028 235.696 388.738 239.766 389.998C244.926 391.598 250.586 390.838 255.646 388.918C260.706 386.998 265.256 384.008 269.766 381.028C269.1 390.228 268.883 399.444 269.116 408.678L275.546 408.938L292.016 336.468C292.016 336.468 263.846 369.188 250.116 378.958L223.776 372.178C223.776 372.178 221.296 374.238 216.076 375.278C216.076 375.278 213.686 384.468 200.246 384.488C186.806 384.508 167.536 382.708 167.536 382.708L168.946 394.528Z" fill="white"/>
<path d="M141.956 259.308C141.956 259.308 129.726 318.678 130.346 339.068C130.346 339.068 146.966 334.408 158.566 339.068C158.566 339.068 138.826 336.868 130.326 345.918C121.826 354.968 147.986 378.748 200.326 373.918C200.326 373.918 210.766 377.188 216.066 375.268C216.066 375.268 214.646 384.728 200.236 384.478C185.886 383.908 143.906 383.558 122.156 364.718C122.166 364.728 119.426 310.148 141.956 259.308Z" fill="#92E3A9"/>
<path opacity="0.6" d="M141.956 259.308C141.956 259.308 129.726 318.678 130.346 339.068C130.346 339.068 146.966 334.408 158.566 339.068C158.566 339.068 138.826 336.868 130.326 345.918C121.826 354.968 147.986 378.748 200.326 373.918C200.326 373.918 210.766 377.188 216.066 375.268C216.066 375.268 214.646 384.728 200.236 384.478C185.886 383.908 143.906 383.558 122.156 364.718C122.166 364.728 119.426 310.148 141.956 259.308Z" fill="white"/>
<path d="M166.966 270.688C166.966 270.688 170.576 296.978 176.406 302.478C182.236 307.978 209.406 306.178 220.166 312.108C220.166 312.108 230.296 294.558 248.616 283.578L223.776 322.688L202.306 317.618L176.096 313.618L173.896 318.678H169.956C169.956 318.678 169.516 290.618 166.966 270.688Z" fill="#92E3A9"/>
<path opacity="0.5" d="M166.966 270.688C166.966 270.688 170.576 296.978 176.406 302.478C182.236 307.978 209.406 306.178 220.166 312.108C220.166 312.108 230.296 294.558 248.616 283.578L223.776 322.688L202.306 317.618L176.096 313.618L173.896 318.678H169.956C169.956 318.678 169.516 290.618 166.966 270.688Z" fill="white"/>
<path d="M269.656 217.138C280.886 223.748 282.146 231.198 284.456 236.518C278.616 237.678 272.576 238.918 267.756 242.408C261.756 246.768 258.506 253.988 255.986 260.998C253.602 267.631 251.599 274.396 249.986 281.258C255.414 271.452 263.129 263.102 272.476 256.918C277.866 253.358 284.526 250.488 290.676 252.498C285.516 254.688 279.676 257.648 278.586 263.148C278.372 264.061 278.41 265.015 278.696 265.908C279.616 268.498 282.836 269.198 285.276 270.458C290.036 272.908 292.516 278.458 292.726 283.838C292.936 289.218 291.286 294.418 289.656 299.508C288.223 303.968 286.79 308.428 285.356 312.888C283.526 318.588 281.666 324.368 278.356 329.368C275.046 334.368 270.076 338.558 264.166 339.538C261.695 340.014 259.138 339.725 256.836 338.708C255.091 337.759 253.469 336.601 252.006 335.258C244.916 329.532 236.396 325.852 227.366 324.618C238.986 332.298 244.486 346.248 249.306 359.318C247.093 355.444 243.904 352.216 240.056 349.958C239.07 349.271 237.898 348.901 236.696 348.898C233.536 349.148 232.536 353.178 230.636 355.698C228.356 358.698 224.186 359.768 220.446 359.288C216.706 358.808 213.266 357.058 209.906 355.288L167.396 333.368L164.396 342.368C164.396 342.368 198.256 369.368 250.136 378.918C250.136 378.918 283.836 352.288 295.776 328.678C307.716 305.068 326.266 256.678 326.266 256.678C326.266 256.678 319.476 243.818 307.836 237.108C307.836 237.108 299.146 232.998 297.316 227.918C295.486 222.838 279.156 214.068 279.156 214.068C279.156 214.068 281.276 219.488 269.656 217.138Z" fill="#92E3A9"/>
<path opacity="0.6" d="M269.656 217.138C280.886 223.748 282.146 231.198 284.456 236.518C278.616 237.678 272.576 238.918 267.756 242.408C261.756 246.768 258.506 253.988 255.986 260.998C253.602 267.631 251.599 274.396 249.986 281.258C255.414 271.452 263.129 263.102 272.476 256.918C277.866 253.358 284.526 250.488 290.676 252.498C285.516 254.688 279.676 257.648 278.586 263.148C278.372 264.061 278.41 265.015 278.696 265.908C279.616 268.498 282.836 269.198 285.276 270.458C290.036 272.908 292.516 278.458 292.726 283.838C292.936 289.218 291.286 294.418 289.656 299.508C288.223 303.968 286.79 308.428 285.356 312.888C283.526 318.588 281.666 324.368 278.356 329.368C275.046 334.368 270.076 338.558 264.166 339.538C261.695 340.014 259.138 339.725 256.836 338.708C255.091 337.759 253.469 336.601 252.006 335.258C244.916 329.532 236.396 325.852 227.366 324.618C238.986 332.298 244.486 346.248 249.306 359.318C247.093 355.444 243.904 352.216 240.056 349.958C239.07 349.271 237.898 348.901 236.696 348.898C233.536 349.148 232.536 353.178 230.636 355.698C228.356 358.698 224.186 359.768 220.446 359.288C216.706 358.808 213.266 357.058 209.906 355.288L167.396 333.368L164.396 342.368C164.396 342.368 198.256 369.368 250.136 378.918C250.136 378.918 283.836 352.288 295.776 328.678C307.716 305.068 326.266 256.678 326.266 256.678C326.266 256.678 319.476 243.818 307.836 237.108C307.836 237.108 299.146 232.998 297.316 227.918C295.486 222.838 279.156 214.068 279.156 214.068C279.156 214.068 281.276 219.488 269.656 217.138Z" fill="white"/>
<path d="M266.086 125.088C266.086 125.088 268.356 98.6176 256.946 96.0876C245.536 93.5576 239.126 83.0876 239.126 83.0876L198.646 94.3876L192.366 118.728L196.366 131.048C196.366 131.048 197.206 142.478 197.366 148.128C197.526 153.778 197.366 158.128 201.646 164.988C205.926 171.848 209.906 178.658 219.156 184.588V200.178C219.156 200.178 213.436 216.868 216.596 227.108C216.596 227.108 218.486 229.108 223.706 226.108C228.926 223.108 251.256 208.188 259.046 192.608L261.466 152.998C261.466 152.998 267.896 153.998 270.666 148.138C274.736 142.408 274.576 135.728 272.996 130.288C271.416 124.848 264.616 128.368 264.616 128.368L266.086 125.088Z" fill="#999999"/>
<path d="M219.596 163.898C220.741 162.651 222.151 161.679 223.723 161.052C225.295 160.425 226.988 160.161 228.676 160.278C228.676 160.278 233.546 152.588 238.676 153.998C238.676 153.998 240.256 162.148 234.106 165.358C226.106 169.528 219.596 163.898 219.596 163.898Z" fill="#737373"/>
<path d="M204.556 91.0176C204.556 91.0176 194.866 103.748 195.426 117.018C195.986 130.288 197.916 139.698 197.356 149.938C196.796 160.178 207.596 177.328 218.666 184.238C226.936 189.408 237.306 188.528 245.356 183.238C254.356 177.238 259.306 166.458 261.116 156.108C261.296 155.108 261.436 154.108 261.536 153.028" stroke="#263238" stroke-linecap="round" stroke-linejoin="round"/>
<path d="M218.666 184.248C218.666 184.248 220.236 198.588 218.666 203.498C216.936 208.888 214.846 221.438 216.666 227.108C218.486 232.778 252.536 208.948 259.116 192.598C259.116 192.598 260.026 160.828 262.296 152.888" stroke="#263238" stroke-linecap="round" stroke-linejoin="round"/>
<path d="M217.726 163.548C217.726 163.548 233.216 167.928 239.556 151.938" stroke="#263238" stroke-linecap="round" stroke-linejoin="round"/>
<path d="M218.976 187.698C218.976 187.698 222.276 197.928 229.396 198.538C236.516 199.148 254.326 184.878 260.396 168.068V159.658C260.396 159.658 255.396 181.658 240.756 185.658C226.116 189.658 219.266 184.568 219.266 184.568L218.976 187.698Z" fill="#263238"/>
<path d="M238.666 153.998C231.786 153.518 228.666 160.278 228.666 160.278C226.971 160.071 225.25 160.294 223.663 160.926C222.077 161.559 220.674 162.581 219.586 163.898C221.281 165.418 223.365 166.438 225.606 166.844C227.846 167.25 230.155 167.026 232.276 166.198C240.096 163.478 238.666 153.998 238.666 153.998Z" stroke="#263238" stroke-linecap="round" stroke-linejoin="round"/>
<path d="M221.416 123.838C221.502 127.01 221.361 130.185 220.996 133.338C220.626 136.168 219.316 138.878 218.226 141.538C217.226 143.958 215.556 147.678 216.946 150.228C218.526 153.118 223.776 150.228 223.776 150.228" stroke="#263238" stroke-linecap="round" stroke-linejoin="round"/>
<path d="M227.006 149.628C228.776 149.868 231.286 149.628 231.786 146.558" stroke="#263238" stroke-linecap="round" stroke-linejoin="round"/>
<path d="M232.726 120.018C234.437 118.385 236.711 117.475 239.076 117.475C241.441 117.475 243.715 118.385 245.426 120.018" stroke="#263238" stroke-width="2" stroke-linecap="round" stroke-linejoin="round"/>
<path d="M212.546 122.518C212.546 122.518 207.856 116.518 201.716 122.518" stroke="#263238" stroke-width="2" stroke-linecap="round" stroke-linejoin="round"/>
<path d="M257.856 137.688C257.856 137.688 263.206 124.838 270.186 127.598C274.996 129.508 275.286 137.808 272.736 143.598C270.186 149.388 268.906 155.288 260.406 151.988" stroke="#263238" stroke-linecap="round" stroke-linejoin="round"/>
<path d="M258.806 135.718C258.806 135.718 253.666 133.898 252.716 125.548C251.766 117.198 256.886 108.838 254.986 102.838C253.086 96.8376 238.116 99.8376 234.706 89.3776C234.706 89.3776 223.466 97.7576 201.706 95.9576C201.706 95.9576 197.116 103.778 196.316 108.558C195.245 116.031 195.272 123.622 196.396 131.088C196.396 131.348 196.486 131.598 196.536 131.858C198.096 139.998 190.326 120.778 190.536 112.568C190.746 104.358 185.796 93.9276 192.246 86.1576C198.696 78.3876 222.346 73.8376 227.006 70.1876C231.666 66.5376 240.726 76.2576 251.196 79.8376C261.666 83.4176 270.346 87.6876 269.026 102.538C267.706 117.388 269.096 119.378 269.156 127.198C269.156 127.218 264.316 125.398 258.806 135.718Z" fill="#263238"/>
<path d="M239.096 130.838C239.096 132.838 238.326 134.498 237.366 134.498C236.406 134.498 235.646 132.858 235.646 130.838C235.646 128.818 236.416 127.188 237.366 127.188C238.316 127.188 239.096 128.838 239.096 130.838Z" fill="#263238"/>
<path d="M212.546 130.838C212.546 132.838 211.776 134.498 210.826 134.498C209.876 134.498 209.106 132.858 209.106 130.838C209.106 128.818 209.876 127.188 210.826 127.188C211.776 127.188 212.546 128.838 212.546 130.838Z" fill="#263238"/>
<path d="M232.726 135.718C232.726 135.718 236.296 139.508 240.816 140.048" stroke="#263238" stroke-linecap="round" stroke-linejoin="round"/>
<path d="M208.406 140.048C208.406 140.048 214.936 139.588 216.406 135.718" stroke="#263238" stroke-linecap="round" stroke-linejoin="round"/>
<path d="M223.586 229.538C228.446 226.448 234.876 227.608 240.196 229.798C243.116 231.008 245.896 232.528 248.806 233.798C250.245 234.434 251.729 234.962 253.246 235.378C256.896 236.328 255.586 231.798 255.376 229.768C255.076 226.858 254.866 223.938 254.516 221.048C254.373 220.449 254.443 219.819 254.716 219.268C255.075 218.823 255.577 218.515 256.136 218.398C262.546 216.398 269.456 217.278 276.136 217.398C276.743 217.469 277.357 217.354 277.896 217.068C278.896 216.418 278.786 214.948 278.516 213.788C276.206 203.908 268.056 194.078 259.196 189.138" stroke="#263238" stroke-linecap="round" stroke-linejoin="round"/>
<path d="M219.226 190.738C214.816 192.578 210.286 194.488 206.486 197.308C205.108 198.313 203.837 199.459 202.696 200.728C201.777 201.602 201.199 202.776 201.066 204.038C201.091 204.625 201.246 205.199 201.522 205.718C201.797 206.237 202.184 206.688 202.656 207.038C203.327 207.59 204.067 208.054 204.856 208.418C206.696 209.288 208.856 210.138 209.636 211.988C209.826 212.375 209.895 212.81 209.836 213.238C209.737 213.613 209.544 213.957 209.276 214.238C207.756 216.088 205.076 217.518 205.276 219.908C205.406 221.758 207.276 222.908 208.936 223.728C210.596 224.548 212.536 225.398 213.106 227.168" stroke="#263238" stroke-linecap="round" stroke-linejoin="round"/>
<path d="M193.116 96.9676C193.766 92.9676 197.946 90.3876 201.966 89.7376C205.986 89.0876 210.116 89.7376 214.166 89.3876C217.553 89.0529 220.829 87.995 223.773 86.2853C226.716 84.5757 229.258 82.2541 231.226 79.4776" stroke="white" stroke-linecap="round" stroke-linejoin="round"/>
<path d="M197.666 85.7276C204.926 81.4376 215.126 85.8976 222.206 81.3176C224.21 79.8589 225.954 78.0741 227.366 76.0376" stroke="white" stroke-linecap="round" stroke-linejoin="round"/>
<path d="M290.276 249.838C264.276 255.028 254.576 274.158 254.576 274.158L223.776 322.668" stroke="#263238" stroke-linecap="round" stroke-linejoin="round"/>
<path d="M268.296 244.598C270.453 242.599 272.897 240.934 275.546 239.658" stroke="#263238" stroke-linecap="round" stroke-linejoin="round"/>
<path d="M250.116 281.218C250.116 281.218 253.396 263.698 262.816 250.788" stroke="#263238" stroke-linecap="round" stroke-linejoin="round"/>
<path d="M169.956 318.598C169.956 318.598 168.606 264.928 163.956 256.728" stroke="#263238" stroke-linecap="round" stroke-linejoin="round"/>
<path d="M278.556 213.768C278.556 213.768 293.556 222.768 300.216 231.228C306.876 239.688 322.616 245.308 326.216 256.728C326.216 256.728 305.486 322.048 283.766 345.658C262.046 369.268 250.086 378.958 250.086 378.958C250.086 378.958 197.836 369.878 163.946 341.418L176.066 313.568C176.066 313.568 210.236 317.888 223.746 322.688C237.256 327.488 250.086 356.558 250.086 356.558" stroke="#263238" stroke-linecap="round" stroke-linejoin="round"/>
<path d="M223.776 322.688C223.776 322.688 247.696 327.338 255.466 338.228" stroke="#263238" stroke-linecap="round" stroke-linejoin="round"/>
<path d="M292.606 333.888L275.546 408.938H171.096L167.536 382.708" stroke="#263238" stroke-linecap="round" stroke-linejoin="round"/>
<path d="M216.076 375.278C210.306 387.098 202.696 384.488 202.696 384.488C143.846 386.718 122.166 364.728 122.166 364.728C122.166 364.728 119.166 333.798 130.736 292.058C142.306 250.318 163.976 213.768 163.976 213.768C173.586 207.378 195.026 202.388 201.076 201.068L202.696 200.728" stroke="#263238" stroke-linecap="round" stroke-linejoin="round"/>
<path d="M202.726 384.488C202.726 384.488 199.616 383.978 200.406 363.358" stroke="#263238" stroke-linecap="round" stroke-linejoin="round"/>
<path d="M165.566 342.738C165.566 342.738 150.866 337.558 132.656 350.158" stroke="#263238" stroke-linecap="round" stroke-linejoin="round"/>
<path d="M135.956 338.228C135.956 338.228 155.216 332.498 163.956 341.678" stroke="#263238" stroke-linecap="round" stroke-linejoin="round"/>
<path d="M161.876 341.158L164.376 342.408L173.896 318.628C173.896 318.628 164.036 317.018 148.416 336.468C153.294 336.524 158.02 338.171 161.876 341.158V341.158Z" fill="#999999" stroke="#263238" stroke-miterlimit="10"/>
<path d="M200.376 363.358V373.928C200.376 373.928 213.846 377.928 223.816 372.178L200.376 363.358Z" fill="#999999" stroke="#263238" stroke-miterlimit="10"/>
<path d="M273.386 217.288C273.396 217.483 273.376 217.678 273.326 217.868C272.906 219.518 262.636 258.288 229.766 275.538C229.48 275.691 229.161 275.77 228.836 275.768C228.389 275.767 227.955 275.617 227.604 275.342C227.252 275.066 227.003 274.681 226.896 274.247C226.789 273.813 226.83 273.356 227.013 272.948C227.196 272.54 227.511 272.206 227.906 271.998C257.906 256.268 268.476 220.418 269.396 217.118L273.386 217.288Z" fill="#263238"/>
<path d="M202.656 207.008C197.46 218.876 194.656 231.654 194.406 244.608C194.406 245.658 194.406 246.728 194.406 247.818C194.406 248.088 194.406 248.358 194.406 248.628C194.108 248.638 193.811 248.668 193.516 248.718C192.434 248.888 191.385 249.226 190.406 249.718C190.406 248.248 190.406 246.818 190.406 245.408C190.836 222.968 197.536 207.698 201.106 201.098L202.726 200.758C201.807 201.632 201.229 202.806 201.096 204.068C201.126 204.642 201.281 205.202 201.551 205.71C201.82 206.218 202.197 206.661 202.656 207.008V207.008Z" fill="#263238"/>
<path d="M242.036 266.518C244.376 269.768 242.456 275.168 237.736 278.578C233.016 281.988 227.296 282.108 224.946 278.858C222.596 275.608 224.516 270.208 229.236 266.798C233.956 263.388 239.726 263.268 242.036 266.518Z" fill="white" stroke="#263238" stroke-linecap="round" stroke-linejoin="round"/>
<path d="M236.216 264.588C237.876 266.888 236.516 270.708 233.216 273.118C229.916 275.528 225.826 275.618 224.216 273.318C222.606 271.018 223.916 267.198 227.216 264.788C230.516 262.378 234.556 262.298 236.216 264.588Z" fill="white" stroke="#263238" stroke-linecap="round" stroke-linejoin="round"/>
<path d="M209.786 305.178C209.36 305.461 208.842 305.57 208.338 305.483C207.834 305.396 207.383 305.119 207.077 304.709C206.77 304.299 206.633 303.788 206.692 303.28C206.752 302.772 207.004 302.306 207.396 301.978C207.566 301.838 214.276 296.128 211.336 276.898C211.086 275.268 210.766 273.528 210.336 271.698C209.066 265.868 207.106 258.488 203.096 253.068C202.142 251.638 200.836 250.478 199.303 249.701C197.771 248.923 196.063 248.553 194.346 248.628C194.048 248.638 193.751 248.668 193.456 248.718C192.374 248.888 191.325 249.226 190.346 249.718C187.359 251.261 185.091 253.908 184.026 257.098L183.666 258.098C181.399 264.23 179.544 270.507 178.116 276.888C176.516 284.738 175.976 292.968 178.816 298.718C179.577 300.295 180.661 301.695 181.998 302.827C183.335 303.959 184.895 304.797 186.576 305.288C187.028 305.436 187.412 305.74 187.659 306.146C187.907 306.552 188.002 307.032 187.927 307.502C187.852 307.971 187.613 308.398 187.252 308.707C186.891 309.016 186.431 309.187 185.956 309.188C185.746 309.187 185.536 309.153 185.336 309.088C183.149 308.431 181.122 307.328 179.384 305.847C177.645 304.367 176.233 302.542 175.236 300.488C172.036 294.018 172.456 285.208 174.076 276.888C175.512 270.045 177.458 263.32 179.896 256.768L180.256 255.768C181.042 253.388 182.359 251.217 184.107 249.421C185.855 247.624 187.989 246.249 190.346 245.398C191.162 245.115 192.002 244.907 192.856 244.778C193.366 244.708 193.856 244.658 194.376 244.628C196.717 244.563 199.036 245.087 201.122 246.151C203.208 247.215 204.994 248.785 206.316 250.718C210.776 256.718 212.896 264.648 214.246 270.868C214.716 273.008 215.076 275.018 215.346 276.918C218.506 298.478 210.176 304.898 209.786 305.178Z" fill="#263238" stroke="#263238" stroke-miterlimit="10"/>
<path d="M184.556 308.838C184.556 308.838 191.806 311.838 193.646 308.838C195.486 305.838 193.996 304.428 191.486 304.188C188.985 304.06 186.478 304.06 183.976 304.188L184.556 308.838Z" fill="#263238" stroke="#263238" stroke-miterlimit="10"/>
<path d="M187.886 307.838C187.756 308.239 187.501 308.588 187.16 308.836C186.819 309.084 186.408 309.217 185.986 309.218C185.776 309.217 185.566 309.183 185.366 309.118C183.179 308.461 181.152 307.358 179.414 305.877C177.675 304.397 176.263 302.572 175.266 300.518C172.066 294.048 172.486 285.238 174.106 276.918H178.106C176.506 284.768 175.966 292.998 178.806 298.748C179.567 300.325 180.651 301.725 181.988 302.857C183.325 303.989 184.885 304.827 186.566 305.318C186.819 305.395 187.054 305.522 187.258 305.691C187.462 305.86 187.63 306.068 187.752 306.302C187.875 306.536 187.95 306.793 187.973 307.056C187.996 307.32 187.967 307.586 187.886 307.838Z" fill="white" stroke="#263238" stroke-linecap="round" stroke-linejoin="round"/>
<path d="M203.106 303.008C202.805 303.366 202.582 303.783 202.453 304.233C202.324 304.682 202.291 305.154 202.356 305.618C202.556 306.303 202.99 306.896 203.582 307.294C204.174 307.692 204.886 307.871 205.596 307.798C207.017 307.609 208.315 306.895 209.236 305.798C210.236 304.678 213.706 297.348 210.496 298.608C208.166 299.488 204.666 300.978 203.106 303.008Z" fill="#263238" stroke="#263238" stroke-miterlimit="10"/>
<path d="M209.786 305.178C209.36 305.461 208.842 305.57 208.338 305.483C207.834 305.396 207.383 305.119 207.077 304.709C206.77 304.299 206.633 303.788 206.692 303.28C206.752 302.772 207.004 302.306 207.396 301.978C207.566 301.838 214.276 296.128 211.336 276.898H215.336C218.506 298.478 210.176 304.898 209.786 305.178Z" fill="white" stroke="#263238" stroke-linecap="round" stroke-linejoin="round"/>
<path opacity="0.2" d="M227.726 128.428C227.726 128.428 240.316 121.888 251.886 128.428C251.886 128.428 252.076 138.078 247.706 142.048C246.156 143.458 239.056 143.698 236.366 143.458C225.446 142.468 227.726 128.428 227.726 128.428Z" fill="white"/>
<path opacity="0.2" d="M219.826 128.428C219.826 128.428 207.236 121.888 195.676 128.428C195.676 128.428 195.486 138.078 199.846 142.048C201.396 143.458 208.506 143.698 211.186 143.458C222.106 142.468 219.826 128.428 219.826 128.428Z" fill="white"/>
<path d="M227.726 128.428C227.726 128.428 240.316 121.888 251.886 128.428C251.886 128.428 252.076 138.078 247.706 142.048C246.156 143.458 239.056 143.698 236.366 143.458C225.446 142.468 227.726 128.428 227.726 128.428Z" stroke="#263238" stroke-miterlimit="10"/>
<path d="M219.826 128.428C219.826 128.428 207.236 121.888 195.676 128.428C195.676 128.428 195.486 138.078 199.846 142.048C201.396 143.458 208.506 143.698 211.186 143.458C222.106 142.468 219.826 128.428 219.826 128.428Z" stroke="#263238" stroke-miterlimit="10"/>
<path d="M219.826 128.428C219.826 128.428 222.646 126.358 227.726 128.428" stroke="#263238" stroke-miterlimit="10"/>
<path d="M251.886 128.428L257.146 130.868" stroke="#263238" stroke-miterlimit="10"/>
<path d="M50.5463 435.558L87.5563 400.598H381.296L403.536 435.558H50.5463Z" fill="white" stroke="#263238" stroke-linecap="round" stroke-linejoin="round"/>
<path d="M403.536 435.558H50.5463V444.968H403.536V435.558Z" fill="#263238" stroke="#263238" stroke-linecap="round" stroke-linejoin="round"/>
<path d="M87.5562 426.918V419.668H145.556V426.918H134.366H87.5562Z" fill="white" stroke="#263238" stroke-miterlimit="10"/>
<path d="M87.5562 419.668L121.816 396.688L167.536 397.768L145.556 419.668H87.5562Z" fill="white" stroke="#263238" stroke-linecap="round" stroke-linejoin="round"/>
<path d="M145.556 426.918L167.536 404.898V397.768L145.556 419.668V426.918Z" fill="white" stroke="#263238" stroke-linecap="round" stroke-linejoin="round"/>
<path d="M143.986 417.838C143.986 417.838 139.356 418.758 139.356 422.768C139.356 426.778 143.356 427.958 143.356 427.958" stroke="#263238" stroke-width="2" stroke-linecap="round" stroke-linejoin="round"/>
<path d="M139.356 417.838C139.356 417.838 134.726 418.758 134.726 422.768C134.726 426.778 138.726 427.958 138.726 427.958" stroke="#263238" stroke-width="2" stroke-linecap="round" stroke-linejoin="round"/>
<path d="M134.726 417.838C134.726 417.838 130.096 418.758 130.096 422.768C130.096 426.778 134.096 427.958 134.096 427.958" stroke="#263238" stroke-width="2" stroke-linecap="round" stroke-linejoin="round"/>
<path d="M130.096 417.838C130.096 417.838 125.466 418.758 125.466 422.768C125.466 426.778 129.466 427.958 129.466 427.958" stroke="#263238" stroke-width="2" stroke-linecap="round" stroke-linejoin="round"/>
<path d="M125.466 417.838C125.466 417.838 120.836 418.758 120.836 422.768C120.836 426.778 124.836 427.958 124.836 427.958" stroke="#263238" stroke-width="2" stroke-linecap="round" stroke-linejoin="round"/>
<path d="M120.836 417.838C120.836 417.838 116.206 418.758 116.206 422.768C116.206 426.778 120.206 427.958 120.206 427.958" stroke="#263238" stroke-width="2" stroke-linecap="round" stroke-linejoin="round"/>
<path d="M116.206 417.838C116.206 417.838 111.576 418.758 111.576 422.768C111.576 426.778 115.576 427.958 115.576 427.958" stroke="#263238" stroke-width="2" stroke-linecap="round" stroke-linejoin="round"/>
<path d="M111.576 417.838C111.576 417.838 106.946 418.758 106.946 422.768C106.946 426.778 110.946 427.958 110.946 427.958" stroke="#263238" stroke-width="2" stroke-linecap="round" stroke-linejoin="round"/>
<path d="M106.376 417.838C106.376 417.838 101.746 418.758 101.746 422.768C101.746 426.778 105.746 427.958 105.746 427.958" stroke="#263238" stroke-width="2" stroke-linecap="round" stroke-linejoin="round"/>
<path d="M101.166 417.838C101.166 417.838 96.5363 418.758 96.5363 422.768C96.5363 426.778 100.536 427.958 100.536 427.958" stroke="#263238" stroke-width="2" stroke-linecap="round" stroke-linejoin="round"/>
<path d="M95.3763 417.838C95.3763 417.838 90.7462 418.758 90.7462 422.768C90.7462 426.778 94.7462 427.958 94.7462 427.958" stroke="#263238" stroke-width="2" stroke-linecap="round" stroke-linejoin="round"/>
<path d="M124.726 402.318C121.532 404.079 119.001 406.836 117.516 410.168C121.726 408.838 125.056 405.838 128.246 402.838L124.786 411.418C126.379 411.288 127.919 410.785 129.281 409.95C130.643 409.114 131.789 407.969 132.626 406.608C132.352 406.726 132.106 406.901 131.904 407.121C131.702 407.341 131.549 407.601 131.455 407.884C131.36 408.167 131.327 408.467 131.356 408.764C131.386 409.061 131.478 409.349 131.626 409.608C134.526 409.188 136.376 406.388 137.836 403.848C138.104 405.261 138.208 406.7 138.146 408.138C140.571 408.485 143.045 408.171 145.306 407.228" stroke="#263238" stroke-width="0.75" stroke-linecap="round" stroke-linejoin="round"/>
<path d="M379.336 365.578H278.526V420.928H379.336V365.578Z" fill="white" stroke="#263238" stroke-linecap="round" stroke-linejoin="round"/>
<path d="M278.136 420.918L261.926 405.508V350.158L278.136 365.578V420.918Z" fill="white" stroke="#263238" stroke-linecap="round" stroke-linejoin="round"/>
<path d="M379.336 365.578L363.126 350.158H262.326L278.526 365.578H379.336Z" fill="white" stroke="#263238" stroke-linecap="round" stroke-linejoin="round"/>
<path d="M342.266 386.338H333.356V377.018H320.796V386.338H311.076V398.898H320.796V408.208H333.356V398.898H342.266V386.338Z" fill="#92E3A9" stroke="#263238" stroke-miterlimit="10"/>
<path d="M328.056 365.578L311.846 350.158" stroke="#263238" stroke-linecap="round" stroke-linejoin="round"/>
<path d="M114.973 130.332C126.731 118.574 126.731 99.509 114.973 87.7503C103.214 75.9916 84.1493 75.9916 72.3906 87.7503C60.6319 99.509 60.6319 118.574 72.3906 130.332C84.1493 142.091 103.214 142.091 114.973 130.332Z" fill="white" stroke="#263238" stroke-linecap="round" stroke-linejoin="round"/>
<path d="M118.726 104.428C118.726 106.443 118.094 108.408 116.919 110.046C115.744 111.683 114.085 112.912 112.176 113.558L98.7262 118.088L82.3562 123.618C79.9447 124.41 77.3176 124.218 75.0474 123.082C72.7772 121.946 71.048 119.959 70.2365 117.554C69.4251 115.149 69.5972 112.52 70.7155 110.241C71.8337 107.962 73.8073 106.218 76.2062 105.388L91.0762 100.388L106.016 95.3876C107.462 94.9015 109.002 94.7655 110.51 94.9909C112.018 95.2164 113.451 95.7967 114.691 96.6843C115.931 97.5718 116.943 98.7412 117.643 100.096C118.342 101.451 118.71 102.953 118.716 104.478L118.726 104.428Z" fill="white"/>
<path d="M118.726 104.428C118.726 106.443 118.094 108.408 116.919 110.046C115.744 111.683 114.085 112.912 112.176 113.558L98.7262 118.088C98.3676 111.461 95.6547 105.181 91.0762 100.378L106.016 95.3776C107.462 94.8915 109.002 94.7555 110.51 94.9809C112.018 95.2064 113.451 95.7867 114.691 96.6743C115.931 97.5618 116.943 98.7312 117.643 100.086C118.342 101.441 118.71 102.943 118.716 104.468L118.726 104.428Z" fill="#92E3A9"/>
<path d="M118.726 104.428C118.726 106.443 118.094 108.408 116.919 110.046C115.744 111.683 114.085 112.912 112.176 113.558L98.7262 118.088L82.3562 123.618C79.9447 124.41 77.3176 124.218 75.0474 123.082C72.7772 121.946 71.048 119.959 70.2365 117.554C69.4251 115.149 69.5972 112.52 70.7155 110.241C71.8337 107.962 73.8073 106.218 76.2062 105.388L91.0762 100.388L106.016 95.3876C107.462 94.9015 109.002 94.7655 110.51 94.9909C112.018 95.2164 113.451 95.7967 114.691 96.6843C115.931 97.5718 116.943 98.7412 117.643 100.096C118.342 101.451 118.71 102.953 118.716 104.478L118.726 104.428Z" stroke="#263238" stroke-linecap="round" stroke-linejoin="round"/>
<path d="M98.7262 118.088C98.4202 111.449 95.6997 105.151 91.0762 100.378" stroke="#263238" stroke-linecap="round" stroke-linejoin="round"/>
<path d="M115.506 100.838C116.138 101.901 116.456 103.121 116.426 104.358" stroke="white" stroke-linecap="round" stroke-linejoin="round"/>
<path d="M94.8763 101.838L106.876 97.8376C107.953 97.4685 109.097 97.3425 110.228 97.4687C111.359 97.595 112.448 97.9702 113.416 98.5676" stroke="white" stroke-linecap="round" stroke-linejoin="round"/>
<path d="M298.269 68.1933C313.583 61.7117 320.743 44.0428 314.262 28.7287C307.78 13.4145 290.111 6.25431 274.797 12.7359C259.483 19.2174 252.323 36.8863 258.804 52.2004C265.286 67.5146 282.955 74.6748 298.269 68.1933Z" fill="white" stroke="#263238" stroke-linecap="round" stroke-linejoin="round"/>
<path d="M296.916 53.0676L270.656 44.2776C268.473 43.5435 266.67 41.9725 265.644 39.9099C264.619 37.8472 264.454 35.4617 265.186 33.2776V33.2776C265.92 31.094 267.491 29.2913 269.554 28.2656C271.617 27.2399 274.002 27.0751 276.186 27.8076L302.446 36.5876C304.628 37.3239 306.429 38.8952 307.455 40.9571C308.48 43.0191 308.646 45.4034 307.916 47.5876V47.5876C307.182 49.7713 305.612 51.5747 303.549 52.602C301.487 53.6294 299.102 53.7968 296.916 53.0676V53.0676Z" fill="#92E3A9"/>
<path d="M277.676 43.5776L282.076 33.0676" stroke="#263238" stroke-linecap="round" stroke-linejoin="round"/>
<path d="M292.146 48.3876L296.526 37.9076" stroke="#263238" stroke-linecap="round" stroke-linejoin="round"/>
<path d="M281.306 44.1976C281.798 44.1976 282.196 43.7991 282.196 43.3076C282.196 42.8161 281.798 42.4176 281.306 42.4176C280.815 42.4176 280.416 42.8161 280.416 43.3076C280.416 43.7991 280.815 44.1976 281.306 44.1976Z" fill="#263238"/>
<path d="M290.056 45.9276C290.056 46.1036 290.004 46.2757 289.906 46.4221C289.808 46.5684 289.669 46.6825 289.507 46.7499C289.344 46.8172 289.165 46.8348 288.993 46.8005C288.82 46.7662 288.661 46.6814 288.537 46.5569C288.412 46.4325 288.328 46.2739 288.293 46.1012C288.259 45.9286 288.277 45.7496 288.344 45.587C288.411 45.4244 288.525 45.2854 288.672 45.1876C288.818 45.0898 288.99 45.0376 289.166 45.0376C289.402 45.0376 289.629 45.1314 289.796 45.2983C289.962 45.4652 290.056 45.6916 290.056 45.9276Z" fill="#263238"/>
<path d="M284.756 36.2776C285.248 36.2776 285.646 35.8791 285.646 35.3876C285.646 34.896 285.248 34.4976 284.756 34.4976C284.265 34.4976 283.866 34.896 283.866 35.3876C283.866 35.8791 284.265 36.2776 284.756 36.2776Z" fill="#263238"/>
<path d="M293.376 37.9276C293.376 38.1036 293.324 38.2757 293.226 38.4221C293.128 38.5684 292.989 38.6825 292.827 38.7499C292.664 38.8172 292.485 38.8348 292.313 38.8005C292.14 38.7662 291.981 38.6814 291.857 38.5569C291.732 38.4325 291.648 38.2739 291.613 38.1012C291.579 37.9286 291.597 37.7496 291.664 37.587C291.731 37.4244 291.845 37.2854 291.992 37.1876C292.138 37.0898 292.31 37.0376 292.486 37.0376C292.722 37.0376 292.949 37.1314 293.115 37.2983C293.282 37.4652 293.376 37.6916 293.376 37.9276V37.9276Z" fill="#263238"/>
<path d="M296.916 53.0676L270.656 44.2776C268.473 43.5435 266.67 41.9725 265.644 39.9099C264.619 37.8472 264.454 35.4617 265.186 33.2776V33.2776C265.92 31.094 267.491 29.2913 269.554 28.2656C271.617 27.2399 274.002 27.0751 276.186 27.8076L302.446 36.5876C304.628 37.3239 306.429 38.8952 307.455 40.9571C308.48 43.0191 308.646 45.4034 307.916 47.5876V47.5876C307.182 49.7713 305.612 51.5747 303.549 52.602C301.487 53.6294 299.102 53.7968 296.916 53.0676V53.0676Z" stroke="#263238" stroke-linecap="round" stroke-linejoin="round"/>
<path d="M172.866 68.9376C189.496 68.9376 202.976 55.4569 202.976 38.8276C202.976 22.1983 189.496 8.71759 172.866 8.71759C156.237 8.71759 142.756 22.1983 142.756 38.8276C142.756 55.4569 156.237 68.9376 172.866 68.9376Z" fill="white" stroke="#263238" stroke-linecap="round" stroke-linejoin="round"/>
<path d="M190.116 39.5976V51.9376C190.116 55.0676 188.116 57.6076 185.666 57.6076H160.066C157.606 57.6076 155.616 55.0676 155.616 51.9376V39.5976C155.616 36.4676 157.616 33.9276 160.066 33.9276H164.276V26.7676H181.276V33.9276H185.636C188.116 33.9276 190.116 36.4676 190.116 39.5976Z" fill="white" stroke="#263238" stroke-linecap="round" stroke-linejoin="round"/>
<path d="M190.106 41.0176H155.616V48.6676H190.106V41.0176Z" fill="#92E3A9" stroke="#263238" stroke-miterlimit="10"/>
<path d="M166.626 18.3876H179.266C180.693 18.3876 182.062 18.9544 183.07 19.9634C184.079 20.9723 184.646 22.3407 184.646 23.7676V29.3576H161.236V23.7676C161.236 23.0602 161.376 22.3598 161.647 21.7064C161.918 21.053 162.315 20.4595 162.816 19.9598C163.316 19.4601 163.91 19.064 164.564 18.7942C165.218 18.5245 165.919 18.3863 166.626 18.3876V18.3876Z" fill="#92E3A9" stroke="#263238" stroke-miterlimit="10"/>
<path d="M165.326 18.7276V29.3576" stroke="#263238" stroke-linecap="round" stroke-linejoin="round"/>
<path d="M170.856 18.3876V29.3576" stroke="#263238" stroke-linecap="round" stroke-linejoin="round"/>
<path d="M176.386 18.3876V29.3576" stroke="#263238" stroke-linecap="round" stroke-linejoin="round"/>
<path d="M181.916 19.0076V29.3576" stroke="#263238" stroke-linecap="round" stroke-linejoin="round"/>
<path d="M95.7246 203.433C98.4149 187.023 87.2926 171.539 70.8823 168.848C54.4721 166.158 38.9881 177.28 36.2979 193.691C33.6077 210.101 44.73 225.585 61.1402 228.275C77.5504 230.965 93.0344 219.843 95.7246 203.433Z" fill="white" stroke="#263238" stroke-linecap="round" stroke-linejoin="round"/>
<path d="M81.2853 206.329C84.5648 199.394 80.0555 190.383 71.2135 186.201C62.3714 182.02 52.5449 184.252 49.2653 191.187C45.9857 198.121 50.495 207.133 59.3371 211.315C68.1792 215.496 78.0057 213.264 81.2853 206.329Z" fill="#92E3A9" stroke="#263238" stroke-linecap="round" stroke-linejoin="round"/>
<path d="M82.3788 203.971C85.4553 197.465 80.7814 188.802 71.9393 184.62C63.0972 180.439 53.4353 182.323 50.3588 188.828C47.2823 195.334 51.9562 203.997 60.7983 208.179C69.6403 212.36 79.3022 210.476 82.3788 203.971Z" fill="#92E3A9" stroke="#263238" stroke-linecap="round" stroke-linejoin="round"/>
<path d="M71.4762 187.498L60.5462 202.868" stroke="#263238" stroke-linecap="round" stroke-linejoin="round"/>
<path d="M64.8962 185.008C66.3611 185.205 67.8041 185.54 69.2062 186.008" stroke="white" stroke-linecap="round" stroke-linejoin="round"/>
<path d="M55.1862 199.478C55.1862 199.478 49.6062 193.368 55.0562 187.478C56.3139 186.196 57.9518 185.354 59.7262 185.078" stroke="white" stroke-linecap="round" stroke-linejoin="round"/>
<path d="M412.889 203.45C415.579 187.04 404.457 171.556 388.046 168.866C371.636 166.176 356.152 177.298 353.462 193.708C350.772 210.118 361.894 225.602 378.304 228.293C394.714 230.983 410.198 219.861 412.889 203.45Z" fill="white" stroke="#263238" stroke-linecap="round" stroke-linejoin="round"/>
<path d="M400.456 201.598C400.226 201.928 399.996 202.268 399.756 202.598C395.246 208.848 388.296 214.678 383.146 215.828V215.748C378.146 214.628 371.416 209.078 366.906 203.018C366.656 202.688 366.416 202.348 366.186 202.018C361.846 195.798 360.016 189.268 364.846 186.568C374.666 181.088 383.146 192.838 383.146 192.838C383.146 192.838 391.646 181.178 401.446 186.648C406.146 189.268 404.536 195.528 400.456 201.598Z" fill="#92E3A9" stroke="#263238" stroke-miterlimit="10"/>
<path d="M400.456 201.598C400.226 201.928 399.996 202.268 399.756 202.598H397.276L394.436 206.348L392.506 195.228L389.506 202.788H382.416L378.786 208.838L375.986 196.588L372.376 202.978H366.906C366.656 202.648 366.416 202.308 366.186 201.978H371.796L376.386 193.848L379.206 206.198L381.876 201.748H388.876L392.876 191.508L395.016 203.868L396.766 201.558L400.456 201.598Z" fill="white"/>
<path d="M354.186 139.488C370.816 139.488 384.296 126.007 384.296 109.378C384.296 92.7483 370.816 79.2676 354.186 79.2676C337.557 79.2676 324.076 92.7483 324.076 109.378C324.076 126.007 337.557 139.488 354.186 139.488Z" fill="white" stroke="#263238" stroke-linecap="round" stroke-linejoin="round"/>
<path d="M351.926 95.4576C352.216 96.1076 350.406 97.5476 347.926 98.6776C345.446 99.8076 343.126 100.198 342.836 99.5376C342.546 98.8776 344.346 97.4476 346.836 96.3176C349.326 95.1876 351.626 94.8376 351.926 95.4576Z" fill="white" stroke="#263238" stroke-linecap="round" stroke-linejoin="round"/>
<path d="M365.476 123.388L356.466 127.748L348.386 111.108L342.806 99.6076L351.816 95.2376L357.256 106.458L365.476 123.388Z" fill="white" stroke="#263238" stroke-linecap="round" stroke-linejoin="round"/>
<path d="M344.476 103.038L348.386 101.228Z" fill="#92E3A9"/>
<path d="M344.476 103.038L348.386 101.228" stroke="#263238" stroke-linecap="round" stroke-linejoin="round"/>
<path d="M346.176 106.658L350.086 104.848Z" fill="#92E3A9"/>
<path d="M346.176 106.658L350.086 104.848" stroke="#263238" stroke-linecap="round" stroke-linejoin="round"/>
<path d="M359.916 126.078L364.566 132.178L362.246 124.948L359.916 126.078Z" fill="white" stroke="#263238" stroke-linecap="round" stroke-linejoin="round"/>
<path d="M365.476 123.388C363.367 125.499 360.675 126.934 357.746 127.508L356.466 127.748L348.386 111.108L357.256 106.458L365.476 123.388Z" fill="#92E3A9" stroke="#263238" stroke-miterlimit="10"/>
<path d="M350.086 114.268L353.766 112.568" stroke="#263238" stroke-linecap="round" stroke-linejoin="round"/>
<path d="M352.106 118.138L355.716 116.488Z" fill="#92E3A9"/>
<path d="M352.106 118.138L355.716 116.488" stroke="#263238" stroke-linecap="round" stroke-linejoin="round"/>
<path d="M345.926 98.0876L343.076 91.6776L345.316 90.4076L348.386 96.8976L345.926 98.0876Z" fill="white" stroke="#263238" stroke-linecap="round" stroke-linejoin="round"/>
<path d="M350.816 89.6276L350.136 88.1276L338.136 93.4976L338.816 94.9976C339.096 95.6376 342.006 94.9376 345.326 93.4576C348.646 91.9776 351.096 90.2576 350.816 89.6276Z" fill="white" stroke="#263238" stroke-linecap="round" stroke-linejoin="round"/>
<path d="M350.136 88.1276C349.856 87.4976 346.936 88.1876 343.626 89.6676C340.316 91.1476 337.856 92.8676 338.136 93.4976C338.416 94.1276 341.336 93.4376 344.646 91.9476C347.956 90.4576 350.416 88.7576 350.136 88.1276Z" fill="white" stroke="#263238" stroke-linecap="round" stroke-linejoin="round"/>
</svg>
