<svg width="418" height="285" viewBox="0 0 418 285" fill="none" xmlns="http://www.w3.org/2000/svg">
<path d="M405.626 281.06L278.327 19.6204L230.626 106.18L169.716 66.3204L116.867 123.82L91.7565 99.5904L21.0765 259.65L5.9765 281.06H405.626Z" fill="#92E3A9"/>
<path opacity="0.5" d="M405.626 281.06L278.327 19.6204L230.626 106.18L169.716 66.3204L116.867 123.82L91.7565 99.5904L21.0765 259.65L5.9765 281.06H405.626Z" fill="white"/>
<path d="M272.457 136.29L275.537 138.65" stroke="white" stroke-linecap="round" stroke-linejoin="round"/>
<path d="M234.577 107.36L268.127 132.98" stroke="white" stroke-linecap="round" stroke-linejoin="round"/>
<path d="M112.267 131.25L88.9465 156.85" stroke="white" stroke-linecap="round" stroke-linejoin="round"/>
<path d="M288.417 79.1404V52.0904L291.716 53.4104L291.986 47.6704L278.327 19.6204L261.047 50.9904L270.607 42.8604L272.586 52.0904L277.866 48.1404L288.417 79.1404Z" fill="white"/>
<path d="M186.106 87.8303L188.006 78.2903L169.716 66.3203L155.596 81.6903L166.126 77.5903L172.786 87.8303L173.296 80.1503L186.106 87.8303Z" fill="white"/>
<path d="M386.947 165.29H219.577V280.62H386.947V165.29Z" fill="#92E3A9" stroke="#263238" stroke-linecap="round" stroke-linejoin="round"/>
<path d="M321.447 224.62H298.097V280.62H321.447V224.62Z" fill="white" stroke="#263238" stroke-linecap="round" stroke-linejoin="round"/>
<path d="M318.947 228.62H300.597V280.62H318.947V228.62Z" fill="#263238" stroke="#263238" stroke-linecap="round" stroke-linejoin="round"/>
<path d="M335.576 217.05H330.616V280.62H335.576V217.05Z" fill="white" stroke="#263238" stroke-linecap="round" stroke-linejoin="round"/>
<path d="M336.446 258.3H329.746V280.62H336.446V258.3Z" fill="white" stroke="#263238" stroke-linecap="round" stroke-linejoin="round"/>
<path d="M392.067 166.78H236.547C236.486 166.78 236.428 166.759 236.382 166.721C236.335 166.683 236.303 166.63 236.292 166.571C236.28 166.512 236.289 166.451 236.317 166.398C236.345 166.345 236.391 166.303 236.447 166.28L279.877 147.47C280.662 147.128 281.51 146.951 282.366 146.95H342.306C343.102 146.95 343.889 147.102 344.627 147.4L392.167 166.27C392.232 166.285 392.289 166.326 392.326 166.382C392.363 166.439 392.376 166.507 392.363 166.574C392.35 166.64 392.312 166.698 392.257 166.737C392.201 166.776 392.133 166.791 392.067 166.78V166.78Z" fill="#263238" stroke="#263238" stroke-linecap="round" stroke-linejoin="round"/>
<path d="M341.277 221.95H251.947L258.627 202.62H329.447L341.277 221.95Z" fill="#263238" stroke="#263238" stroke-linecap="round" stroke-linejoin="round"/>
<path d="M290.197 165.29H213.687V280.62H290.197V165.29Z" fill="white" stroke="#263238" stroke-linecap="round" stroke-linejoin="round"/>
<path d="M290.197 260.62H213.687V280.62H290.197V260.62Z" fill="#92E3A9" stroke="#263238" stroke-linecap="round" stroke-linejoin="round"/>
<path d="M250.827 146.09L209.057 165.09C209 165.114 208.954 165.156 208.925 165.21C208.897 165.264 208.889 165.327 208.902 165.386C208.915 165.446 208.949 165.499 208.997 165.536C209.046 165.574 209.105 165.593 209.167 165.59H294.727C294.788 165.593 294.847 165.574 294.896 165.536C294.944 165.499 294.978 165.446 294.991 165.386C295.004 165.327 294.996 165.264 294.968 165.21C294.939 165.156 294.893 165.114 294.837 165.09L253.067 146.09C252.716 145.927 252.333 145.843 251.947 145.843C251.56 145.843 251.177 145.927 250.827 146.09Z" fill="#263238" stroke="#263238" stroke-linecap="round" stroke-linejoin="round"/>
<path d="M309.766 239.12C310.871 239.12 311.766 238.225 311.766 237.12C311.766 236.016 310.871 235.12 309.766 235.12C308.662 235.12 307.766 236.016 307.766 237.12C307.766 238.225 308.662 239.12 309.766 239.12Z" fill="white"/>
<path d="M381.947 229.62H344.947V260.62H381.947V229.62Z" fill="white" stroke="#263238" stroke-linecap="round" stroke-linejoin="round"/>
<path d="M367.947 232.44H358.947V239.12H367.947V232.44Z" fill="#263238" stroke="#263238" stroke-linecap="round" stroke-linejoin="round"/>
<path d="M367.947 242.12H358.947V257.8H367.947V242.12Z" fill="#263238" stroke="#263238" stroke-linecap="round" stroke-linejoin="round"/>
<path d="M356.447 232.44H348.307V239.12H356.447V232.44Z" fill="#263238" stroke="#263238" stroke-linecap="round" stroke-linejoin="round"/>
<path d="M378.587 232.44H370.447V239.12H378.587V232.44Z" fill="#263238" stroke="#263238" stroke-linecap="round" stroke-linejoin="round"/>
<path d="M378.587 242.12H370.447V257.8H378.587V242.12Z" fill="#263238" stroke="#263238" stroke-linecap="round" stroke-linejoin="round"/>
<path d="M356.447 242.12H348.307V257.8H356.447V242.12Z" fill="#263238" stroke="#263238" stroke-linecap="round" stroke-linejoin="round"/>
<path d="M275.447 229.62H228.447V260.62H275.447V229.62Z" fill="white" stroke="#263238" stroke-linecap="round" stroke-linejoin="round"/>
<path d="M251.447 232.44H242.447V239.12H251.447V232.44Z" fill="#263238" stroke="#263238" stroke-linecap="round" stroke-linejoin="round"/>
<path d="M251.447 242.12H242.447V257.8H251.447V242.12Z" fill="#263238" stroke="#263238" stroke-linecap="round" stroke-linejoin="round"/>
<path d="M239.947 232.44H231.807V239.12H239.947V232.44Z" fill="#263238" stroke="#263238" stroke-linecap="round" stroke-linejoin="round"/>
<path d="M262.087 232.44H253.947V239.12H262.087V232.44Z" fill="#263238" stroke="#263238" stroke-linecap="round" stroke-linejoin="round"/>
<path d="M262.087 242.12H253.947V257.8H262.087V242.12Z" fill="#263238" stroke="#263238" stroke-linecap="round" stroke-linejoin="round"/>
<path d="M272.587 232.44H264.447V239.12H272.587V232.44Z" fill="#263238" stroke="#263238" stroke-linecap="round" stroke-linejoin="round"/>
<path d="M272.587 242.12H264.447V257.8H272.587V242.12Z" fill="#263238" stroke="#263238" stroke-linecap="round" stroke-linejoin="round"/>
<path d="M239.947 242.12H231.807V257.8H239.947V242.12Z" fill="#263238" stroke="#263238" stroke-linecap="round" stroke-linejoin="round"/>
<path d="M275.447 170.12H228.447V201.12H275.447V170.12Z" fill="white" stroke="#263238" stroke-linecap="round" stroke-linejoin="round"/>
<path d="M251.447 172.94H242.447V179.62H251.447V172.94Z" fill="#263238" stroke="#263238" stroke-linecap="round" stroke-linejoin="round"/>
<path d="M251.447 182.62H242.447V198.3H251.447V182.62Z" fill="#263238" stroke="#263238" stroke-linecap="round" stroke-linejoin="round"/>
<path d="M239.947 172.94H231.807V179.62H239.947V172.94Z" fill="#263238" stroke="#263238" stroke-linecap="round" stroke-linejoin="round"/>
<path d="M262.087 172.94H253.947V179.62H262.087V172.94Z" fill="#263238" stroke="#263238" stroke-linecap="round" stroke-linejoin="round"/>
<path d="M262.087 182.62H253.947V198.3H262.087V182.62Z" fill="#263238" stroke="#263238" stroke-linecap="round" stroke-linejoin="round"/>
<path d="M272.587 172.94H264.447V179.62H272.587V172.94Z" fill="#263238" stroke="#263238" stroke-linecap="round" stroke-linejoin="round"/>
<path d="M272.587 182.62H264.447V198.3H272.587V182.62Z" fill="#263238" stroke="#263238" stroke-linecap="round" stroke-linejoin="round"/>
<path d="M239.947 182.62H231.807V198.3H239.947V182.62Z" fill="#263238" stroke="#263238" stroke-linecap="round" stroke-linejoin="round"/>
<path d="M381.947 170.12H344.947V201.12H381.947V170.12Z" fill="white" stroke="#263238" stroke-linecap="round" stroke-linejoin="round"/>
<path d="M367.947 172.94H358.947V179.62H367.947V172.94Z" fill="#263238" stroke="#263238" stroke-linecap="round" stroke-linejoin="round"/>
<path d="M367.947 182.62H358.947V198.3H367.947V182.62Z" fill="#263238" stroke="#263238" stroke-linecap="round" stroke-linejoin="round"/>
<path d="M356.447 172.94H348.307V179.62H356.447V172.94Z" fill="#263238" stroke="#263238" stroke-linecap="round" stroke-linejoin="round"/>
<path d="M378.587 172.94H370.447V179.62H378.587V172.94Z" fill="#263238" stroke="#263238" stroke-linecap="round" stroke-linejoin="round"/>
<path d="M378.587 182.62H370.447V198.3H378.587V182.62Z" fill="#263238" stroke="#263238" stroke-linecap="round" stroke-linejoin="round"/>
<path d="M356.447 182.62H348.307V198.3H356.447V182.62Z" fill="#263238" stroke="#263238" stroke-linecap="round" stroke-linejoin="round"/>
<path d="M323.447 170.12H297.447V201.12H323.447V170.12Z" fill="white" stroke="#263238" stroke-linecap="round" stroke-linejoin="round"/>
<path d="M320.447 172.94H311.447V179.62H320.447V172.94Z" fill="#263238" stroke="#263238" stroke-linecap="round" stroke-linejoin="round"/>
<path d="M320.447 182.62H311.447V198.3H320.447V182.62Z" fill="#263238" stroke="#263238" stroke-linecap="round" stroke-linejoin="round"/>
<path d="M308.947 172.94H300.807V179.62H308.947V172.94Z" fill="#263238" stroke="#263238" stroke-linecap="round" stroke-linejoin="round"/>
<path d="M308.947 182.62H300.807V198.3H308.947V182.62Z" fill="#263238" stroke="#263238" stroke-linecap="round" stroke-linejoin="round"/>
<path d="M372.197 260.62H354.697V265.62H372.197V260.62Z" fill="#92E3A9" stroke="#263238" stroke-linecap="round" stroke-linejoin="round"/>
<path d="M261.526 260.62H244.026V265.62H261.526V260.62Z" fill="#92E3A9" stroke="#263238" stroke-linecap="round" stroke-linejoin="round"/>
<path d="M173.187 180.62H37.5765V280.62H173.187V180.62Z" fill="white" stroke="#263238" stroke-linecap="round" stroke-linejoin="round"/>
<path d="M184.606 183.44H26.1565L37.9965 187.75H172.757L184.606 183.44Z" fill="#92E3A9" stroke="#263238" stroke-linecap="round" stroke-linejoin="round"/>
<path d="M184.626 183.45H26.1465L36.9765 167.89C37.292 167.437 37.7122 167.067 38.2014 166.811C38.6906 166.555 39.2344 166.421 39.7865 166.42H170.966C171.52 166.42 172.066 166.554 172.557 166.81C173.047 167.066 173.469 167.437 173.786 167.89L184.626 183.45Z" fill="#263238" stroke="#263238" stroke-linecap="round" stroke-linejoin="round"/>
<path d="M51.1164 154.16H39.8564V169.25H51.1164V154.16Z" fill="white" stroke="#263238" stroke-linecap="round" stroke-linejoin="round"/>
<path d="M51.1165 154.16H48.1565V169.25H51.1165V154.16Z" fill="white" stroke="#263238" stroke-linecap="round" stroke-linejoin="round"/>
<path d="M52.9765 149.41H37.9965V157.17H52.9765V149.41Z" fill="white" stroke="#263238" stroke-linecap="round" stroke-linejoin="round"/>
<path d="M52.9765 149.41H47.7965V157.17H52.9765V149.41Z" fill="white" stroke="#263238" stroke-linecap="round" stroke-linejoin="round"/>
<path d="M72.4465 188.33H53.9465V217.12H72.4465V188.33Z" fill="white" stroke="#263238" stroke-linecap="round" stroke-linejoin="round"/>
<path d="M70.4465 190.12H55.9465V215.69H70.4465V190.12Z" fill="#263238" stroke="white" stroke-linecap="round" stroke-linejoin="round"/>
<path d="M70.4465 190.12H55.9465V204.12H70.4465V190.12Z" fill="#263238" stroke="white" stroke-linecap="round" stroke-linejoin="round"/>
<path d="M66.4465 190.12H59.9465V204.12H66.4465V190.12Z" fill="#263238" stroke="white" stroke-linecap="round" stroke-linejoin="round"/>
<path d="M75.4465 243.83H50.9465V272.62H75.4465V243.83Z" fill="white" stroke="#263238" stroke-linecap="round" stroke-linejoin="round"/>
<path d="M72.7964 245.62H53.5964V271.19H72.7964V245.62Z" fill="#263238" stroke="white" stroke-linecap="round" stroke-linejoin="round"/>
<path d="M72.7964 245.62H53.5964V259.62H72.7964V245.62Z" fill="#263238" stroke="white" stroke-linecap="round" stroke-linejoin="round"/>
<path d="M67.5065 245.62H58.8965V259.62H67.5065V245.62Z" fill="#263238" stroke="white" stroke-linecap="round" stroke-linejoin="round"/>
<path d="M159.447 243.83H134.947V272.62H159.447V243.83Z" fill="white" stroke="#263238" stroke-linecap="round" stroke-linejoin="round"/>
<path d="M156.796 245.62H137.596V271.19H156.796V245.62Z" fill="#263238" stroke="white" stroke-linecap="round" stroke-linejoin="round"/>
<path d="M156.796 245.62H137.596V259.62H156.796V245.62Z" fill="#263238" stroke="white" stroke-linecap="round" stroke-linejoin="round"/>
<path d="M151.506 245.62H142.896V259.62H151.506V245.62Z" fill="#263238" stroke="white" stroke-linecap="round" stroke-linejoin="round"/>
<path d="M157.447 188.33H138.947V217.12H157.447V188.33Z" fill="white" stroke="#263238" stroke-linecap="round" stroke-linejoin="round"/>
<path d="M155.447 190.12H140.947V215.69H155.447V190.12Z" fill="#263238" stroke="white" stroke-linecap="round" stroke-linejoin="round"/>
<path d="M155.447 190.12H140.947V204.12H155.447V190.12Z" fill="#263238" stroke="white" stroke-linecap="round" stroke-linejoin="round"/>
<path d="M151.447 190.12H144.947V204.12H151.447V190.12Z" fill="#263238" stroke="white" stroke-linecap="round" stroke-linejoin="round"/>
<path d="M110.947 192.62H97.9565V212.83H110.947V192.62Z" fill="white" stroke="#263238" stroke-linecap="round" stroke-linejoin="round"/>
<path d="M109.526 193.88H99.3564V211.4H109.526V193.88Z" fill="#263238" stroke="white" stroke-linecap="round" stroke-linejoin="round"/>
<path d="M109.526 193.88H99.3564V203.7H109.526V193.88Z" fill="#263238" stroke="white" stroke-linecap="round" stroke-linejoin="round"/>
<path d="M106.727 193.88H102.167V203.7H106.727V193.88Z" fill="#263238" stroke="white" stroke-linecap="round" stroke-linejoin="round"/>
<path d="M122.947 235.62H87.8065V271.12H122.947V235.62Z" fill="#92E3A9" stroke="#263238" stroke-linecap="round" stroke-linejoin="round"/>
<path d="M118.947 240.62H91.8065V271.12H118.947V240.62Z" fill="#263238" stroke="#263238" stroke-linecap="round" stroke-linejoin="round"/>
<path d="M100.447 240.62H96.8065V271.12H100.447V240.62Z" fill="white" stroke="#263238" stroke-linecap="round" stroke-linejoin="round"/>
<path d="M112.447 240.62H108.807V271.12H112.447V240.62Z" fill="white" stroke="#263238" stroke-linecap="round" stroke-linejoin="round"/>
<path d="M93.4465 233.78H89.2265L105.376 219.78L121.536 233.78H117.446V236.11H129.626L105.956 215.62C105.796 215.48 105.59 215.402 105.376 215.402C105.163 215.402 104.957 215.48 104.796 215.62L81.1365 236.11H93.4465V233.78Z" fill="#92E3A9" stroke="#263238" stroke-linecap="round" stroke-linejoin="round"/>
<path d="M123.117 271.12H87.8065V274.23H123.117V271.12Z" fill="#92E3A9" stroke="#263238" stroke-linecap="round" stroke-linejoin="round"/>
<path d="M123.117 274.14H87.8065V277.25H123.117V274.14Z" fill="#92E3A9" stroke="#263238" stroke-linecap="round" stroke-linejoin="round"/>
<path d="M123.117 277.16H87.8065V280.27H123.117V277.16Z" fill="#92E3A9" stroke="#263238" stroke-linecap="round" stroke-linejoin="round"/>
<path d="M91.8065 240.62H88.2765" stroke="#263238" stroke-linecap="round" stroke-linejoin="round"/>
<path d="M122.806 240.62H119.276" stroke="#263238" stroke-linecap="round" stroke-linejoin="round"/>
<path d="M210.947 261.97C210.947 261.97 220.357 262.9 225.127 268.73C226.84 266.654 228.992 264.983 231.428 263.839C233.865 262.694 236.525 262.104 239.217 262.11C241.426 259.442 242.833 256.201 243.272 252.765C243.712 249.328 243.166 245.838 241.699 242.699C240.232 239.561 237.904 236.904 234.985 235.037C232.067 233.17 228.678 232.171 225.214 232.155C221.75 232.139 218.352 233.107 215.416 234.947C212.481 236.787 210.128 239.423 208.633 242.547C207.137 245.672 206.559 249.158 206.967 252.598C207.375 256.038 208.751 259.292 210.937 261.98L210.947 261.97Z" fill="#92E3A9"/>
<path opacity="0.5" d="M210.947 261.97C210.947 261.97 220.357 262.9 225.127 268.73C226.84 266.654 228.992 264.983 231.428 263.839C233.865 262.694 236.525 262.104 239.217 262.11C241.426 259.442 242.833 256.201 243.272 252.765C243.712 249.328 243.166 245.838 241.699 242.699C240.232 239.561 237.904 236.904 234.985 235.037C232.067 233.17 228.678 232.171 225.214 232.155C221.75 232.139 218.352 233.107 215.416 234.947C212.481 236.787 210.128 239.423 208.633 242.547C207.137 245.672 206.559 249.158 206.967 252.598C207.375 256.038 208.751 259.292 210.937 261.98L210.947 261.97Z" fill="white"/>
<path d="M224.817 233.43L224.497 280.62H226.087L224.817 233.43Z" fill="#263238"/>
<path d="M225.286 266.96C225.286 266.96 228.466 261.24 234.186 259.49C234.186 259.49 228.186 260.92 225.136 265.84L225.286 266.96Z" fill="#263238"/>
<path d="M225.286 250.75C225.286 250.75 228.466 245.03 234.186 243.28C234.186 243.28 228.186 244.71 225.136 249.64L225.286 250.75Z" fill="#263238"/>
<path d="M225.286 258.85C225.286 258.85 228.466 253.13 234.186 251.39C234.186 251.39 228.186 252.82 225.136 257.74L225.286 258.85Z" fill="#263238"/>
<path d="M224.817 254.88C224.817 254.88 221.757 249.16 216.237 247.41C216.237 247.41 222.057 248.84 224.977 253.77L224.817 254.88Z" fill="#263238"/>
<path d="M224.817 262.82C224.817 262.82 221.757 257.11 216.237 255.36C216.237 255.36 222.057 256.79 224.977 261.71L224.817 262.82Z" fill="#263238"/>
<path d="M385.247 261.97C385.247 261.97 394.657 262.9 399.437 268.73C401.15 266.654 403.302 264.983 405.739 263.839C408.175 262.694 410.835 262.104 413.527 262.11C415.736 259.442 417.143 256.201 417.582 252.765C418.022 249.328 417.476 245.838 416.009 242.699C414.542 239.561 412.214 236.904 409.295 235.037C406.377 233.17 402.988 232.171 399.524 232.155C396.06 232.139 392.662 233.107 389.727 234.947C386.791 236.787 384.439 239.423 382.943 242.547C381.447 245.672 380.869 249.158 381.277 252.598C381.685 256.038 383.062 259.292 385.247 261.98V261.97Z" fill="#92E3A9"/>
<path opacity="0.5" d="M385.247 261.97C385.247 261.97 394.657 262.9 399.437 268.73C401.15 266.654 403.302 264.983 405.739 263.839C408.175 262.694 410.835 262.104 413.527 262.11C415.736 259.442 417.143 256.201 417.582 252.765C418.022 249.328 417.476 245.838 416.009 242.699C414.542 239.561 412.214 236.904 409.295 235.037C406.377 233.17 402.988 232.171 399.524 232.155C396.06 232.139 392.662 233.107 389.727 234.947C386.791 236.787 384.439 239.423 382.943 242.547C381.447 245.672 380.869 249.158 381.277 252.598C381.685 256.038 383.062 259.292 385.247 261.98V261.97Z" fill="white"/>
<path d="M399.117 233.43L398.807 280.62H400.387L399.117 233.43Z" fill="#263238"/>
<path d="M399.627 266.96C399.627 266.96 402.807 261.24 408.527 259.49C408.527 259.49 402.527 260.92 399.467 265.84L399.627 266.96Z" fill="#263238"/>
<path d="M399.627 250.75C399.627 250.75 402.807 245.03 408.527 243.28C408.527 243.28 402.527 244.71 399.467 249.64L399.627 250.75Z" fill="#263238"/>
<path d="M399.627 258.85C399.627 258.85 402.807 253.13 408.527 251.39C408.527 251.39 402.527 252.82 399.467 257.74L399.627 258.85Z" fill="#263238"/>
<path d="M399.126 254.88C399.126 254.88 396.056 249.16 390.536 247.41C390.536 247.41 396.366 248.84 399.276 253.77L399.126 254.88Z" fill="#263238"/>
<path d="M399.126 262.82C399.126 262.82 396.056 257.11 390.536 255.36C390.536 255.36 396.366 256.79 399.276 261.71L399.126 262.82Z" fill="#263238"/>
<path d="M7.24652 261.97C7.24652 261.97 16.6565 262.9 21.4365 268.73C23.1498 266.654 25.3021 264.983 27.7384 263.839C30.1748 262.694 32.8347 262.104 35.5265 262.11C37.7362 259.442 39.1426 256.201 39.5821 252.765C40.0216 249.328 39.476 245.838 38.009 242.699C36.5419 239.561 34.2137 236.904 31.2953 235.037C28.3769 233.17 24.9883 232.171 21.5239 232.155C18.0596 232.139 14.6619 233.107 11.7265 234.947C8.79101 236.787 6.43846 239.423 4.94262 242.547C3.44678 245.672 2.86918 249.158 3.27705 252.598C3.68492 256.038 5.06149 259.292 7.24652 261.98V261.97Z" fill="#92E3A9"/>
<path opacity="0.5" d="M7.24652 261.97C7.24652 261.97 16.6565 262.9 21.4365 268.73C23.1498 266.654 25.3021 264.983 27.7384 263.839C30.1748 262.694 32.8347 262.104 35.5265 262.11C37.7362 259.442 39.1426 256.201 39.5821 252.765C40.0216 249.328 39.476 245.838 38.009 242.699C36.5419 239.561 34.2137 236.904 31.2953 235.037C28.3769 233.17 24.9883 232.171 21.5239 232.155C18.0596 232.139 14.6619 233.107 11.7265 234.947C8.79101 236.787 6.43846 239.423 4.94262 242.547C3.44678 245.672 2.86918 249.158 3.27705 252.598C3.68492 256.038 5.06149 259.292 7.24652 261.98V261.97Z" fill="white"/>
<path d="M21.1165 233.43L20.8065 280.62H22.3965L21.1165 233.43Z" fill="#263238"/>
<path d="M21.6266 266.96C21.6266 266.96 24.8066 261.24 30.5266 259.49C30.5266 259.49 24.5266 260.92 21.4666 265.84L21.6266 266.96Z" fill="#263238"/>
<path d="M21.6266 250.75C21.6266 250.75 24.8066 245.03 30.5266 243.28C30.5266 243.28 24.5266 244.71 21.4666 249.64L21.6266 250.75Z" fill="#263238"/>
<path d="M21.6266 258.85C21.6266 258.85 24.8066 253.13 30.5266 251.39C30.5266 251.39 24.5266 252.82 21.4666 257.74L21.6266 258.85Z" fill="#263238"/>
<path d="M21.1265 254.88C21.1265 254.88 18.0565 249.16 12.5365 247.41C12.5365 247.41 18.3665 248.84 21.2765 253.77L21.1265 254.88Z" fill="#263238"/>
<path d="M21.1265 262.82C21.1265 262.82 18.0565 257.11 12.5365 255.36C12.5365 255.36 18.3665 256.79 21.2765 261.71L21.1265 262.82Z" fill="#263238"/>
<path d="M160.377 248.04C160.377 248.04 176.817 249.67 185.147 259.86C185.147 259.86 193.947 248.06 209.767 248.3C213.645 243.636 216.118 237.965 216.897 231.948C217.675 225.932 216.728 219.818 214.164 214.32C211.601 208.822 207.528 204.165 202.419 200.893C197.31 197.622 191.377 195.87 185.31 195.841C179.244 195.813 173.294 197.51 168.155 200.734C163.016 203.958 158.9 208.576 156.285 214.05C153.671 219.525 152.666 225.629 153.389 231.653C154.112 237.676 156.532 243.37 160.367 248.07L160.377 248.04Z" fill="#92E3A9"/>
<path opacity="0.3" d="M160.377 248.04C160.377 248.04 176.817 249.67 185.147 259.86C185.147 259.86 193.947 248.06 209.767 248.3C213.645 243.636 216.118 237.965 216.897 231.948C217.675 225.932 216.728 219.818 214.164 214.32C211.601 208.822 207.528 204.165 202.419 200.893C197.31 197.622 191.377 195.87 185.31 195.841C179.244 195.813 173.294 197.51 168.155 200.734C163.016 203.958 158.9 208.576 156.285 214.05C153.671 219.525 152.666 225.629 153.389 231.653C154.112 237.676 156.532 243.37 160.367 248.07L160.377 248.04Z" fill="white"/>
<path d="M184.607 198.21L184.047 280.62H186.827L184.607 198.21Z" fill="#263238"/>
<path d="M185.436 256.76C185.436 256.76 190.987 246.76 200.977 243.71C200.977 243.71 190.426 246.21 185.156 254.81L185.436 256.76Z" fill="#263238"/>
<path d="M185.436 228.45C185.436 228.45 190.987 218.45 200.977 215.45C200.977 215.45 190.426 217.95 185.156 226.55L185.436 228.45Z" fill="#263238"/>
<path d="M185.436 242.62C185.436 242.62 190.987 232.62 200.977 229.62C200.977 229.62 190.426 232.12 185.156 240.72L185.436 242.62Z" fill="#263238"/>
<path d="M184.626 235.67C184.626 235.67 179.266 225.67 169.626 222.67C169.626 222.67 179.806 225.16 184.886 233.76L184.626 235.67Z" fill="#263238"/>
<path d="M184.626 249.54C184.626 249.54 179.266 239.54 169.626 236.54C169.626 236.54 179.806 239.04 184.886 247.64L184.626 249.54Z" fill="#263238"/>
<path d="M412.607 279.95H5.27649V283.95H412.607V279.95Z" fill="#263238" stroke="#263238" stroke-linecap="round" stroke-linejoin="round"/>
<path d="M198.537 133.81C195.237 132 193.737 133.51 192.537 132C191.337 130.49 195.847 126.59 186.827 122.69C186.827 122.69 186.227 114.27 173.907 113.97C161.587 113.67 164.907 122.39 161.587 124.49C158.267 126.59 157.377 123.29 154.077 125.39C150.777 127.49 152.267 131.7 149.567 132.3C146.867 132.9 143.257 129.6 139.947 131.7C136.637 133.8 136.627 135.62 135.127 135.62C133.627 135.62 130.627 134.42 128.817 135.62C127.007 136.82 124.917 138.32 124.917 138.32H200.917C200.917 138.32 201.847 135.62 198.537 133.81Z" fill="white"/>
<path d="M166.727 122.08C164.327 120.76 163.227 121.86 162.357 120.76C161.487 119.66 164.757 116.82 158.197 113.98C158.197 113.98 157.757 107.85 148.777 107.63C139.797 107.41 142.217 113.76 139.777 115.29C137.337 116.82 136.707 114.42 134.297 115.95C131.887 117.48 132.987 120.55 131.017 120.95C129.047 121.35 126.417 118.95 124.017 120.52C121.617 122.09 121.617 123.36 120.517 123.36C119.417 123.36 117.237 122.49 115.917 123.36C114.597 124.23 113.077 125.36 113.077 125.36H168.467C168.467 125.36 169.137 123.39 166.727 122.08Z" fill="white"/>
<path d="M185.727 27.0204C181.227 24.5704 179.177 26.6104 177.547 24.5704C175.917 22.5304 182.047 17.2004 169.767 11.8804C169.767 11.8804 168.947 0.420368 152.167 0.0103679C135.387 -0.399632 139.897 11.4704 135.387 14.3404C130.877 17.2104 129.667 12.7004 125.157 15.5604C120.647 18.4204 122.707 24.1604 119.027 24.9804C115.347 25.8004 110.427 21.2904 105.927 24.1604C101.427 27.0304 101.427 29.4804 99.3766 29.4804C97.3266 29.4804 93.2366 27.8404 90.7866 29.4804C88.3366 31.1204 85.4666 33.1604 85.4666 33.1604H188.997C188.997 33.1604 190.227 29.4804 185.727 27.0204Z" fill="#92E3A9"/>
<path opacity="0.8" d="M185.727 27.0204C181.227 24.5704 179.177 26.6104 177.547 24.5704C175.917 22.5304 182.047 17.2004 169.767 11.8804C169.767 11.8804 168.947 0.420368 152.167 0.0103679C135.387 -0.399632 139.897 11.4704 135.387 14.3404C130.877 17.2104 129.667 12.7004 125.157 15.5604C120.647 18.4204 122.707 24.1604 119.027 24.9804C115.347 25.8004 110.427 21.2904 105.927 24.1604C101.427 27.0304 101.427 29.4804 99.3766 29.4804C97.3266 29.4804 93.2366 27.8404 90.7866 29.4804C88.3366 31.1204 85.4666 33.1604 85.4666 33.1604H188.997C188.997 33.1604 190.227 29.4804 185.727 27.0204Z" fill="white"/>
</svg>
