<svg width="563" height="449" viewBox="0 0 563 449" fill="none" xmlns="http://www.w3.org/2000/svg">
<path d="M215.109 12.0055H123.389V126.295H215.109V12.0055Z" stroke="#A3A3A3" stroke-miterlimit="10"/>
<path d="M211.359 16.6855H127.139V121.625H211.359V16.6855Z" stroke="#A3A3A3" stroke-miterlimit="10"/>
<path d="M185.269 49.1955H153.239V89.1055H185.269V49.1955Z" fill="#D6D6D6"/>
<path d="M283.119 48.1355H220.919V125.645H283.119V48.1355Z" stroke="#A3A3A3" stroke-miterlimit="10"/>
<path d="M280.649 51.2055H223.379V122.565H280.649V51.2055Z" stroke="#A3A3A3" stroke-miterlimit="10"/>
<path d="M262.879 73.3555H241.159V100.425H262.879V73.3555Z" fill="#D6D6D6"/>
<path d="M172.539 204.686V142.486H95.0286V204.686H172.539Z" stroke="#A3A3A3" stroke-miterlimit="10"/>
<path d="M168.889 201.766V145.415H98.6685V201.766H168.889Z" stroke="#A3A3A3" stroke-miterlimit="10"/>
<path d="M147.319 184.445V162.725H120.249V184.445H147.319Z" fill="#D6D6D6"/>
<path d="M259.159 142.025H179.759V240.956H259.159V142.025Z" stroke="#A3A3A3" stroke-miterlimit="10"/>
<path d="M255.959 146.015H182.959V236.975H255.959V146.015Z" stroke="#A3A3A3" stroke-miterlimit="10"/>
<path d="M233.329 174.215H205.599V208.765H233.329V174.215Z" fill="#D6D6D6"/>
<path d="M22.8885 226.675L42.8386 417.915" stroke="#263238" stroke-width="2" stroke-miterlimit="10"/>
<path d="M39.1686 380.555L30.5786 371.766" stroke="#263238" stroke-width="2" stroke-miterlimit="10"/>
<path d="M33.2986 374.626C33.2813 373.163 32.9512 371.72 32.3302 370.396C31.7093 369.071 30.812 367.895 29.6986 366.946C27.3786 364.876 15.1486 359.736 13.9886 364.036C12.7586 368.716 25.2986 377.916 33.2986 374.626Z" fill="#92E3A9" stroke="#263238" stroke-miterlimit="10"/>
<path d="M33.3286 374.625L21.6886 367.375" stroke="#263238" stroke-width="0.5" stroke-miterlimit="10"/>
<path d="M40.8186 402.206L32.8486 393.505" stroke="#263238" stroke-width="2" stroke-miterlimit="10"/>
<path d="M35.5986 396.376C35.5813 394.913 35.2512 393.47 34.6302 392.146C34.0093 390.821 33.1119 389.645 31.9986 388.696C29.6786 386.626 17.4486 381.486 16.2886 385.786C15.0286 390.466 27.5386 399.666 35.5986 396.376Z" fill="#92E3A9" stroke="#263238" stroke-miterlimit="10"/>
<path d="M35.5986 396.375L23.9586 389.125" stroke="#263238" stroke-width="0.5" stroke-miterlimit="10"/>
<path d="M33.6786 327.426L24.6286 317.865" stroke="#263238" stroke-width="2" stroke-miterlimit="10"/>
<path d="M27.7886 321.555C27.7713 320.093 27.4412 318.65 26.8202 317.326C26.1993 316.001 25.3019 314.825 24.1886 313.876C21.8686 311.806 9.63856 306.665 8.47856 310.965C7.21856 315.645 19.7286 324.845 27.7886 321.555Z" fill="#92E3A9" stroke="#263238" stroke-miterlimit="10"/>
<path d="M27.7886 321.555L16.1486 314.305" stroke="#263238" stroke-width="0.5" stroke-miterlimit="10"/>
<path d="M35.4586 349.225L27.3086 340.435" stroke="#263238" stroke-width="2" stroke-miterlimit="10"/>
<path d="M30.0586 343.305C30.0413 341.843 29.7112 340.4 29.0902 339.076C28.4693 337.751 27.5719 336.575 26.4586 335.626C24.1386 333.556 11.9085 328.415 10.7485 332.715C9.48855 337.395 21.9986 346.595 30.0586 343.305Z" fill="#92E3A9" stroke="#263238" stroke-miterlimit="10"/>
<path d="M30.0585 343.305L18.4185 336.055" stroke="#263238" stroke-width="0.5" stroke-miterlimit="10"/>
<path d="M30.0986 292.115L21.3486 283.355" stroke="#263238" stroke-width="2" stroke-miterlimit="10"/>
<path d="M24.0986 286.226C24.0813 284.763 23.7512 283.32 23.1302 281.996C22.5093 280.671 21.6119 279.495 20.4985 278.546C18.1785 276.476 5.95855 271.336 4.79855 275.636C3.53855 280.316 16.0486 289.516 24.0986 286.226Z" fill="#92E3A9" stroke="#263238" stroke-miterlimit="10"/>
<path d="M24.0986 286.225L12.4686 278.975" stroke="#263238" stroke-width="0.5" stroke-miterlimit="10"/>
<path d="M25.9686 256.655L17.6486 247.875" stroke="#263238" stroke-width="2" stroke-miterlimit="10"/>
<path d="M20.3986 250.735C20.3806 249.274 20.05 247.834 19.429 246.511C18.8081 245.188 17.9112 244.013 16.7986 243.065C14.4786 241.005 2.29856 235.845 1.08856 240.155C-0.171444 244.835 12.2986 254.005 20.3986 250.735Z" fill="#92E3A9" stroke="#263238" stroke-miterlimit="10"/>
<path d="M20.3985 250.736L8.75854 243.486" stroke="#263238" stroke-width="0.5" stroke-miterlimit="10"/>
<path d="M38.1086 368.445L44.9886 357.236" stroke="#263238" stroke-width="2" stroke-miterlimit="10"/>
<path d="M42.8885 360.595C42.603 359.162 42.6284 357.683 42.9631 356.26C43.2977 354.837 43.9339 353.502 44.8285 352.345C46.6685 349.835 57.5685 342.285 59.5885 346.255C61.7885 350.575 51.4485 362.155 42.8885 360.595Z" fill="#92E3A9" stroke="#263238" stroke-miterlimit="10"/>
<path d="M42.8885 360.595L53.3586 350.585" stroke="#263238" stroke-width="0.5" stroke-miterlimit="10"/>
<path d="M32.1286 311.215L39.0086 299.995" stroke="#263238" stroke-width="2" stroke-miterlimit="10"/>
<path d="M36.9086 303.365C36.6263 301.931 36.6533 300.454 36.9879 299.031C37.3224 297.608 37.9568 296.273 38.8486 295.115C40.6986 292.605 51.5886 285.055 53.6186 289.025C55.8186 293.345 45.4786 304.925 36.9086 303.365Z" fill="#92E3A9" stroke="#263238" stroke-miterlimit="10"/>
<path d="M36.9086 303.365L47.3885 293.355" stroke="#263238" stroke-width="0.5" stroke-miterlimit="10"/>
<path d="M29.5085 286.065L36.3885 274.845" stroke="#263238" stroke-width="2" stroke-miterlimit="10"/>
<path d="M34.2986 278.215C34.0176 276.788 34.0444 275.318 34.3772 273.902C34.71 272.486 35.3412 271.158 36.2286 270.005C38.0686 267.495 48.9686 259.936 50.9886 263.916C53.1886 268.196 42.8486 279.775 34.2986 278.215Z" fill="#92E3A9" stroke="#263238" stroke-miterlimit="10"/>
<path d="M34.2885 278.215L44.7685 268.206" stroke="#263238" stroke-width="0.5" stroke-miterlimit="10"/>
<path d="M25.6586 249.195L32.5386 237.975" stroke="#263238" stroke-width="2" stroke-miterlimit="10"/>
<path d="M30.4386 241.345C30.1563 239.911 30.1833 238.434 30.5179 237.011C30.8524 235.588 31.4868 234.253 32.3786 233.095C34.2186 230.585 45.1186 223.025 47.1486 226.995C49.3486 231.325 38.9986 242.895 30.4386 241.345Z" fill="#92E3A9" stroke="#263238" stroke-miterlimit="10"/>
<path d="M30.4386 241.345L40.9186 231.326" stroke="#263238" stroke-width="0.5" stroke-miterlimit="10"/>
<path d="M22.7185 225.615C22.433 224.182 22.4584 222.703 22.7931 221.28C23.1277 219.857 23.7639 218.522 24.6586 217.365C26.4986 214.855 37.3986 207.305 39.4186 211.275C41.6186 215.595 31.2985 227.175 22.7185 225.615Z" fill="#92E3A9" stroke="#263238" stroke-miterlimit="10"/>
<path d="M22.7186 225.615L33.1986 215.605" stroke="#263238" stroke-width="0.5" stroke-miterlimit="10"/>
<path d="M23.2985 226.005C21.8432 226.139 20.3761 225.959 18.9961 225.478C17.6162 224.996 16.3553 224.225 15.2985 223.215C12.9985 221.115 6.62855 209.485 10.7885 207.895C15.2985 206.195 25.7685 217.695 23.2985 226.005Z" fill="#92E3A9" stroke="#263238" stroke-miterlimit="10"/>
<path d="M23.3286 226.045L14.4686 214.585" stroke="#263238" stroke-width="0.5" stroke-miterlimit="10"/>
<path d="M75.5285 253.415L59.2485 417.915" stroke="#263238" stroke-width="2" stroke-miterlimit="10"/>
<path d="M60.0686 408.185L53.1786 396.965" stroke="#263238" stroke-width="2" stroke-miterlimit="10"/>
<path d="M55.2986 400.335C55.5841 398.902 55.5587 397.423 55.224 396C54.8894 394.577 54.2532 393.242 53.3586 392.085C51.4886 389.575 40.5886 382.005 38.5686 386.005C36.3686 390.325 46.7186 401.895 55.2986 400.335Z" fill="#92E3A9" stroke="#263238" stroke-miterlimit="10"/>
<path d="M55.2786 400.335L45.3885 390.845" stroke="#263238" stroke-width="0.5" stroke-miterlimit="10"/>
<path d="M65.5785 355.105L58.6885 343.896" stroke="#263238" stroke-width="2" stroke-miterlimit="10"/>
<path d="M60.7885 347.265C61.071 345.83 61.0441 344.351 60.7095 342.926C60.375 341.502 59.7406 340.165 58.8485 339.005C56.9985 336.505 46.0985 328.955 44.0785 332.925C41.8785 337.245 52.2285 348.825 60.7885 347.265Z" fill="#92E3A9" stroke="#263238" stroke-miterlimit="10"/>
<path d="M60.7886 347.266L50.8986 337.766" stroke="#263238" stroke-width="0.5" stroke-miterlimit="10"/>
<path d="M63.3186 376.855L56.4286 365.646" stroke="#263238" stroke-width="2" stroke-miterlimit="10"/>
<path d="M58.5286 369.005C58.8143 367.57 58.789 366.09 58.4543 364.665C58.1197 363.24 57.4835 361.904 56.5886 360.745C54.7386 358.245 43.8386 350.695 41.8186 354.665C39.6186 359.005 49.9686 370.575 58.5286 369.005Z" fill="#92E3A9" stroke="#263238" stroke-miterlimit="10"/>
<path d="M58.5286 369.016L48.6385 359.516" stroke="#263238" stroke-width="0.5" stroke-miterlimit="10"/>
<path d="M69.2386 319.775L62.3586 308.565" stroke="#263238" stroke-width="2" stroke-miterlimit="10"/>
<path d="M64.4586 311.926C64.7338 310.487 64.6978 309.007 64.3528 307.584C64.0078 306.161 63.3619 304.828 62.4586 303.676C60.6186 301.166 49.7086 293.625 47.6886 297.595C45.5486 301.915 55.8886 313.496 64.4586 311.926Z" fill="#92E3A9" stroke="#263238" stroke-miterlimit="10"/>
<path d="M64.4586 311.926L54.5586 302.435" stroke="#263238" stroke-width="0.5" stroke-miterlimit="10"/>
<path d="M72.9185 284.285L66.0385 273.076" stroke="#263238" stroke-width="2" stroke-miterlimit="10"/>
<path d="M68.1385 276.445C68.4138 275.007 68.3777 273.527 68.0328 272.104C67.6878 270.681 67.0419 269.348 66.1385 268.195C64.2985 265.685 53.3986 258.135 51.3786 262.105C49.2286 266.435 59.5785 278.005 68.1385 276.445Z" fill="#92E3A9" stroke="#263238" stroke-miterlimit="10"/>
<path d="M68.1385 276.445L58.2386 266.956" stroke="#263238" stroke-width="0.5" stroke-miterlimit="10"/>
<path d="M61.2285 395.275L70.2685 385.715" stroke="#263238" stroke-width="2" stroke-miterlimit="10"/>
<path d="M67.5186 388.576C67.5365 387.114 67.8671 385.674 68.4881 384.351C69.109 383.028 70.0059 381.853 71.1186 380.905C73.4386 378.825 85.6586 373.676 86.8186 377.986C88.0886 382.666 75.5786 391.866 67.5186 388.576Z" fill="#92E3A9" stroke="#263238" stroke-miterlimit="10"/>
<path d="M67.5186 388.576L79.8385 380.935" stroke="#263238" stroke-width="0.5" stroke-miterlimit="10"/>
<path d="M67.1685 338.035L76.2085 328.475" stroke="#263238" stroke-width="2" stroke-miterlimit="10"/>
<path d="M73.4586 331.345C73.4758 329.883 73.8059 328.44 74.4269 327.116C75.0478 325.791 75.9452 324.615 77.0585 323.665C79.3785 321.595 91.5986 316.445 92.7586 320.745C94.0286 325.425 81.5186 334.625 73.4586 331.345Z" fill="#92E3A9" stroke="#263238" stroke-miterlimit="10"/>
<path d="M73.4586 331.345L85.7785 323.706" stroke="#263238" stroke-width="0.5" stroke-miterlimit="10"/>
<path d="M69.7786 312.885L78.8186 303.326" stroke="#263238" stroke-width="2" stroke-miterlimit="10"/>
<path d="M76.0685 306.185C76.0865 304.724 76.4171 303.284 77.038 301.961C77.659 300.638 78.5559 299.463 79.6685 298.515C81.9885 296.435 94.2085 291.285 95.3685 295.595C96.6385 300.275 84.1285 309.475 76.0685 306.185Z" fill="#92E3A9" stroke="#263238" stroke-miterlimit="10"/>
<path d="M76.0685 306.185L88.3885 298.546" stroke="#263238" stroke-width="0.5" stroke-miterlimit="10"/>
<path d="M73.5986 276.016L82.6486 266.456" stroke="#263238" stroke-width="2" stroke-miterlimit="10"/>
<path d="M79.8986 269.315C79.9158 267.853 80.2459 266.41 80.8669 265.086C81.4878 263.761 82.3852 262.585 83.4986 261.635C85.8186 259.565 98.0385 254.415 99.1985 258.715C100.459 263.395 87.9586 272.605 79.8986 269.315Z" fill="#92E3A9" stroke="#263238" stroke-miterlimit="10"/>
<path d="M79.8986 269.315L92.2086 261.676" stroke="#263238" stroke-width="0.5" stroke-miterlimit="10"/>
<path d="M75.5786 252.335C75.5959 250.874 75.9262 249.433 76.5472 248.11C77.1682 246.787 78.0654 245.613 79.1786 244.665C81.4986 242.585 93.7186 237.436 94.8786 241.736C96.1386 246.426 83.6386 255.625 75.5786 252.335Z" fill="#92E3A9" stroke="#263238" stroke-miterlimit="10"/>
<path d="M75.5786 252.335L87.8885 244.695" stroke="#263238" stroke-width="0.5" stroke-miterlimit="10"/>
<path d="M76.0786 252.885C74.627 252.717 73.2287 252.238 71.9779 251.483C70.7272 250.727 69.6532 249.712 68.8286 248.505C67.0086 245.975 63.1686 233.285 67.5686 232.585C72.3586 231.815 80.1986 245.215 76.0786 252.885Z" fill="#92E3A9" stroke="#263238" stroke-miterlimit="10"/>
<path d="M76.0786 252.885L69.7786 239.835" stroke="#263238" stroke-width="0.5" stroke-miterlimit="10"/>
<path d="M52.7786 176.076V417.915" stroke="#263238" stroke-width="2" stroke-miterlimit="10"/>
<path d="M52.9786 381.555L44.9686 371.105" stroke="#263238" stroke-width="2" stroke-miterlimit="10"/>
<path d="M47.4085 374.245C47.5393 372.79 47.3581 371.324 46.877 369.944C46.3958 368.565 45.6259 367.304 44.6185 366.245C42.5285 363.935 30.8985 357.555 29.2985 361.715C27.5585 366.235 39.0485 376.675 47.4085 374.245Z" fill="#92E3A9" stroke="#263238" stroke-miterlimit="10"/>
<path d="M47.4086 374.245L36.5886 365.826" stroke="#263238" stroke-width="0.5" stroke-miterlimit="10"/>
<path d="M52.9786 336.105L44.9686 325.655" stroke="#263238" stroke-width="2" stroke-miterlimit="10"/>
<path d="M47.4085 328.795C47.5393 327.34 47.3581 325.874 46.877 324.494C46.3958 323.115 45.6259 321.854 44.6185 320.795C42.5285 318.495 30.8985 312.105 29.2985 316.265C27.5585 320.785 39.0485 331.225 47.4085 328.795Z" fill="#92E3A9" stroke="#263238" stroke-miterlimit="10"/>
<path d="M47.4086 328.796L36.5886 320.375" stroke="#263238" stroke-width="0.5" stroke-miterlimit="10"/>
<path d="M52.9786 282.745L44.9686 272.296" stroke="#263238" stroke-width="2" stroke-miterlimit="10"/>
<path d="M47.4085 275.435C47.5393 273.98 47.3581 272.514 46.877 271.134C46.3958 269.755 45.6259 268.494 44.6185 267.435C42.5285 265.135 30.8985 258.746 29.2985 262.916C27.5585 267.426 39.0485 277.865 47.4085 275.435Z" fill="#92E3A9" stroke="#263238" stroke-miterlimit="10"/>
<path d="M47.4086 275.435L36.5886 267.016" stroke="#263238" stroke-width="0.5" stroke-miterlimit="10"/>
<path d="M52.9786 247.225L44.9686 236.775" stroke="#263238" stroke-width="2" stroke-miterlimit="10"/>
<path d="M47.4085 239.915C47.5393 238.46 47.3581 236.994 46.877 235.614C46.3958 234.235 45.6259 232.974 44.6185 231.915C42.5285 229.615 30.8985 223.225 29.2985 227.385C27.5585 231.905 39.0485 242.345 47.4085 239.915Z" fill="#92E3A9" stroke="#263238" stroke-miterlimit="10"/>
<path d="M47.4086 239.915L36.5886 231.495" stroke="#263238" stroke-width="0.5" stroke-miterlimit="10"/>
<path d="M52.9786 211.545L44.9686 201.105" stroke="#263238" stroke-width="2" stroke-miterlimit="10"/>
<path d="M47.4085 204.235C47.5393 202.78 47.3581 201.314 46.877 199.934C46.3958 198.555 45.6259 197.294 44.6185 196.235C42.5285 193.935 30.8985 187.556 29.2985 191.716C27.5585 196.226 39.0485 206.675 47.4085 204.235Z" fill="#92E3A9" stroke="#263238" stroke-miterlimit="10"/>
<path d="M47.4086 204.235L36.5886 195.815" stroke="#263238" stroke-width="0.5" stroke-miterlimit="10"/>
<path d="M52.7986 395.426L60.8086 384.986" stroke="#263238" stroke-width="2" stroke-miterlimit="10"/>
<path d="M58.3685 388.115C58.2332 386.661 58.4113 385.194 58.8909 383.814C59.3704 382.434 60.1403 381.173 61.1485 380.115C63.2485 377.805 74.8685 371.425 76.4685 375.585C78.2085 380.115 66.7185 390.555 58.3685 388.115Z" fill="#92E3A9" stroke="#263238" stroke-miterlimit="10"/>
<path d="M58.3686 388.115L69.8286 379.245" stroke="#263238" stroke-width="0.5" stroke-miterlimit="10"/>
<path d="M52.7986 323.146L60.8086 312.706" stroke="#263238" stroke-width="2" stroke-miterlimit="10"/>
<path d="M58.3686 315.835C58.2345 314.381 58.4132 312.914 58.8927 311.535C59.3722 310.155 60.1414 308.894 61.1486 307.835C63.2486 305.535 74.8685 299.155 76.4685 303.315C78.2085 307.825 66.7186 318.275 58.3686 315.835Z" fill="#92E3A9" stroke="#263238" stroke-miterlimit="10"/>
<path d="M58.3686 315.835L69.8286 306.965" stroke="#263238" stroke-width="0.5" stroke-miterlimit="10"/>
<path d="M52.7986 287.465L60.8086 277.025" stroke="#263238" stroke-width="2" stroke-miterlimit="10"/>
<path d="M58.3685 280.155C58.2332 278.701 58.4113 277.234 58.8909 275.854C59.3704 274.474 60.1403 273.213 61.1485 272.155C63.2485 269.845 74.8685 263.465 76.4685 267.625C78.2085 272.155 66.7185 282.595 58.3685 280.155Z" fill="#92E3A9" stroke="#263238" stroke-miterlimit="10"/>
<path d="M58.3686 280.155L69.8286 271.285" stroke="#263238" stroke-width="0.5" stroke-miterlimit="10"/>
<path d="M52.7986 240.315L60.8086 229.875" stroke="#263238" stroke-width="2" stroke-miterlimit="10"/>
<path d="M58.3686 233.005C58.2345 231.551 58.4132 230.084 58.8927 228.705C59.3722 227.325 60.1414 226.064 61.1486 225.005C63.2486 222.705 74.8685 216.325 76.4685 220.485C78.2085 225.005 66.7186 235.445 58.3686 233.005Z" fill="#92E3A9" stroke="#263238" stroke-miterlimit="10"/>
<path d="M58.3686 233.005L69.8286 224.135" stroke="#263238" stroke-width="0.5" stroke-miterlimit="10"/>
<path d="M52.7986 203.245L60.8086 192.795" stroke="#263238" stroke-width="2" stroke-miterlimit="10"/>
<path d="M58.3686 195.935C58.2345 194.481 58.4132 193.014 58.8927 191.635C59.3722 190.255 60.1414 188.994 61.1486 187.935C63.2486 185.635 74.8685 179.245 76.4685 183.405C78.2085 187.925 66.7186 198.365 58.3686 195.935Z" fill="#92E3A9" stroke="#263238" stroke-miterlimit="10"/>
<path d="M58.3686 195.935L69.8286 187.055" stroke="#263238" stroke-width="0.5" stroke-miterlimit="10"/>
<path d="M52.2985 179.485C52.1632 178.031 52.3413 176.564 52.8208 175.184C53.3004 173.804 54.0703 172.543 55.0785 171.485C57.1785 169.175 68.7985 162.795 70.3985 166.955C72.1585 171.485 60.6685 181.925 52.2985 179.485Z" fill="#92E3A9" stroke="#263238" stroke-miterlimit="10"/>
<path d="M52.3185 179.485L63.7785 170.615" stroke="#263238" stroke-width="0.5" stroke-miterlimit="10"/>
<path d="M52.8786 180.005C51.4167 179.985 49.9761 179.652 48.6533 179.03C47.3305 178.407 46.156 177.509 45.2086 176.395C43.1386 174.065 38.0086 161.845 42.3086 160.685C46.9986 159.405 56.1786 171.925 52.8786 180.005Z" fill="#92E3A9" stroke="#263238" stroke-miterlimit="10"/>
<path d="M52.8785 179.985L45.2585 167.655" stroke="#263238" stroke-width="0.5" stroke-miterlimit="10"/>
<path d="M191.409 418.055C187.859 407.155 179.179 380.225 179.879 379.185C180.739 377.885 180.739 370.945 180.739 370.945C180.739 370.945 152.539 374.415 132.589 357.495C112.639 340.575 88.7686 320.625 88.7686 320.625C88.7686 320.625 85.2986 331.005 81.8286 341.885C78.8986 351.055 73.1686 402.415 71.4686 418.055H191.409Z" fill="#263238" stroke="#263238" stroke-linecap="round" stroke-linejoin="round"/>
<path d="M121.619 387.835C126.679 392.515 135.429 400.765 141.869 407.695" stroke="#6E6E6E" stroke-linecap="round" stroke-linejoin="round"/>
<path d="M117.559 384.115L119.129 385.546" stroke="#6E6E6E" stroke-linecap="round" stroke-linejoin="round"/>
<path d="M216.019 201.005C216.019 201.005 186.359 213.445 172.809 222.605C159.259 231.765 131.809 258.485 123.749 269.105C115.689 279.725 95.9186 302.105 90.7986 308.275C85.6786 314.445 82.3786 318.165 83.7986 328.415C85.2186 338.665 94.0486 355.145 103.569 363.565C113.089 371.985 132.119 382.505 156.659 381.505C170.929 380.925 179.359 377.845 187.049 370.155C194.739 362.465 206.459 342.325 216.709 332.445C226.959 322.565 244.529 302.445 244.529 302.445C244.529 302.445 291.399 319.285 295.789 319.285C300.179 319.285 322.159 306.836 322.519 303.176C322.879 299.516 274.189 267.296 269.799 259.236C265.409 251.176 256.299 236.505 256.299 236.505C256.299 236.505 234.299 204.655 216.019 201.005Z" fill="#7D7D7D" stroke="#263238" stroke-linecap="round" stroke-linejoin="round"/>
<path d="M269.839 259.206C265.439 251.156 256.289 236.505 256.289 236.505C251.691 230.037 246.638 223.905 241.169 218.155C239.358 218.452 237.632 219.134 236.109 220.155C224.749 228.525 230.109 249.445 231.319 266.155C232.149 276.455 235.221 286.448 240.319 295.435L222.629 326.535C232.579 316.175 244.629 302.405 244.629 302.405C244.629 302.405 291.499 319.245 295.889 319.245C300.279 319.245 322.259 306.795 322.619 303.135C322.979 299.475 274.229 267.266 269.839 259.206Z" fill="#263238" stroke="#263238" stroke-linecap="round" stroke-linejoin="round"/>
<path d="M202.439 209.556C202.439 209.556 195.229 205.955 190.179 223.265C185.129 240.575 198.109 286.025 204.609 286.745C211.109 287.465 224.809 253.565 226.969 243.465C229.129 233.365 222.639 203.066 202.439 209.556Z" fill="#92E3A9" stroke="#263238" stroke-linecap="round" stroke-linejoin="round"/>
<path d="M224.799 247.125C224.799 247.125 221.059 250.306 215.649 254.446C209.429 259.206 208.279 268.065 203.889 262.935C199.499 257.805 192.949 221.865 196.979 214.535C201.009 207.205 215.979 197.325 217.109 196.595C218.239 195.865 228.459 209.415 229.199 219.295C229.939 229.175 224.799 247.125 224.799 247.125Z" fill="white" stroke="#263238" stroke-linecap="round" stroke-linejoin="round"/>
<path d="M217.109 196.595C216.019 197.325 200.999 207.215 196.979 214.535C195.389 217.415 195.449 224.735 196.359 232.855C197.799 233.835 199.359 234.879 201.039 235.986C214.609 244.936 224.799 247.125 224.799 247.125L225.549 207.995C222.299 201.485 217.819 196.125 217.109 196.595Z" fill="#263238" stroke="#263238" stroke-linecap="round" stroke-linejoin="round"/>
<path d="M282.299 206.115L266.919 232.475C261.789 241.265 255.919 251.475 245.679 253.715C235.439 255.955 225.549 257.375 220.049 248.585C214.549 239.795 208.699 228.085 212.359 211.975C216.019 195.865 222.249 191.106 229.939 185.246C237.629 179.386 245.299 175.725 254.089 179.005C262.879 182.285 282.299 206.115 282.299 206.115Z" fill="white" stroke="#263238" stroke-linecap="round" stroke-linejoin="round"/>
<path d="M251.169 215.166C250.399 216.526 249.109 217.255 248.299 216.785C247.489 216.315 247.449 214.845 248.219 213.485C248.989 212.125 250.279 211.406 251.099 211.866C251.919 212.326 251.949 213.806 251.169 215.166Z" fill="#263238" stroke="#263238" stroke-linecap="round" stroke-linejoin="round"/>
<path d="M267.079 222.696C266.309 224.056 265.019 224.786 264.209 224.326C263.399 223.866 263.359 222.375 264.129 221.015C264.899 219.655 266.189 218.935 267.009 219.395C267.829 219.855 267.859 221.346 267.079 222.696Z" fill="#263238" stroke="#263238" stroke-linecap="round" stroke-linejoin="round"/>
<path d="M246.699 204.195C248.543 203.864 250.436 203.916 252.26 204.348C254.083 204.78 255.798 205.582 257.299 206.705" stroke="#263238" stroke-width="2" stroke-linecap="round" stroke-linejoin="round"/>
<path d="M266.809 212.115C266.809 212.115 274.259 212.505 273.939 217.915" stroke="#263238" stroke-width="2" stroke-linecap="round" stroke-linejoin="round"/>
<path d="M238.559 231.225C238.559 231.225 240.559 237.595 250.239 240.475" stroke="#263238" stroke-linecap="round" stroke-linejoin="round"/>
<path d="M264.439 217.005L262.179 222.295C262.179 222.295 257.179 234.805 256.289 236.475C255.399 238.145 248.579 234.756 246.699 231.736" stroke="#263238" stroke-linecap="round" stroke-linejoin="round"/>
<path d="M221.869 203.185C221.869 203.185 222.969 203.186 225.869 201.356C228.769 199.526 232.099 202.825 239.049 200.255C245.999 197.685 236.119 187.806 245.639 187.076C255.159 186.346 260.289 201.726 271.999 207.216C283.709 212.706 291.779 210.516 296.899 197.326C302.019 184.136 294.709 176.456 288.849 170.606C282.989 164.756 288.849 163.606 287.019 154.496C285.189 145.386 276.019 141.675 267.249 144.975C258.479 148.275 260.649 150.835 255.889 150.835C251.129 150.835 246.739 144.606 233.559 147.166C220.379 149.726 210.129 163.646 208.659 176.826C207.189 190.006 211.589 203.915 213.419 204.655C215.249 205.395 221.869 203.185 221.869 203.185Z" fill="#263238" stroke="#263238" stroke-linecap="round" stroke-linejoin="round"/>
<path d="M221.889 208.005C221.889 208.005 225.509 196.765 221.669 193.435C217.829 190.105 211.459 192.235 210.149 197.205C208.839 202.175 206.769 211.095 208.939 213.375C211.109 215.655 215.349 214.965 215.349 214.965" fill="white"/>
<path d="M221.889 208.005C221.889 208.005 225.509 196.765 221.669 193.435C217.829 190.105 211.459 192.235 210.149 197.205C208.839 202.175 206.769 211.095 208.939 213.375C211.109 215.655 215.349 214.965 215.349 214.965" stroke="#263238" stroke-linecap="round" stroke-linejoin="round"/>
<path d="M343.299 418.055L327.559 360.225C326.397 355.954 323.862 352.184 320.345 349.497C316.828 346.809 312.525 345.354 308.099 345.356H245.129C240.099 345.354 235.25 347.232 231.533 350.622C227.816 354.011 225.5 358.667 225.039 363.676L220.039 418.055H343.299Z" fill="#263238" stroke="#263238" stroke-linecap="round" stroke-linejoin="round"/>
<path d="M298.399 299.505C298.399 299.505 251.159 320.745 248.969 322.935C246.779 325.125 233.219 418.055 233.219 418.055H396.159C396.159 418.055 370.889 320.005 367.599 317.815C364.309 315.625 321.099 297.676 319.999 297.676C318.899 297.676 298.399 299.505 298.399 299.505Z" fill="#92E3A9" stroke="#263238" stroke-linecap="round" stroke-linejoin="round"/>
<path d="M355.299 303.505C355.299 303.505 359.969 303.725 360.819 304.995C361.669 306.265 363.819 314.125 362.939 315.995C362.059 317.865 360.179 316.205 358.939 313.875C357.699 311.545 356.599 309.206 356.599 309.206L354.259 307.505L355.299 303.505Z" fill="white" stroke="#263238" stroke-linecap="round" stroke-linejoin="round"/>
<path d="M349.299 298.835C349.299 298.835 355.249 299.475 356.099 301.595C356.949 303.715 356.729 309.246 355.879 312.426C355.029 315.606 353.549 317.736 352.269 316.676C350.989 315.616 348.449 304.355 348.449 303.085C348.449 301.815 348.659 298.835 349.299 298.835Z" fill="white" stroke="#263238" stroke-linecap="round" stroke-linejoin="round"/>
<path d="M345.059 295.865C345.059 295.865 350.579 297.355 351.639 298.865C352.699 300.375 352.699 308.635 351.639 311.815C350.579 314.995 348.029 315.815 346.749 315.005C345.469 314.195 344.209 308.846 344.209 306.296C344.209 303.746 345.059 295.865 345.059 295.865Z" fill="white" stroke="#263238" stroke-linecap="round" stroke-linejoin="round"/>
<path d="M338.039 294.946C338.039 294.946 343.649 292.786 345.369 294.946C347.089 297.106 346.229 313.485 344.939 315.215C343.649 316.945 339.759 315.215 339.759 313.055C339.759 310.895 338.299 305.006 338.299 305.006L331.609 302.286C331.609 302.286 335.019 294.946 338.039 294.946Z" fill="white" stroke="#263238" stroke-linecap="round" stroke-linejoin="round"/>
<path d="M338.259 304.995L337.629 299.905" stroke="#263238" stroke-linecap="round" stroke-linejoin="round"/>
<path d="M295.769 301.125C295.769 301.125 288.639 302.545 288.169 308.255C287.699 313.965 289.119 341.985 292.919 344.835C296.719 347.685 315.299 334.375 315.299 334.375C315.299 334.375 329.969 342.005 333.299 339.605C336.629 337.205 333.769 312.525 326.649 303.025C319.529 293.525 295.769 301.125 295.769 301.125Z" fill="white" stroke="#263238" stroke-linecap="round" stroke-linejoin="round"/>
<path d="M266.639 387.415L273.859 349.185" stroke="#263238" stroke-linecap="round" stroke-linejoin="round"/>
<path d="M355.369 341.965L364.029 373.305L358.259 416.995" stroke="#263238" stroke-linecap="round" stroke-linejoin="round"/>
<path d="M274.999 294.986C287.436 294.986 297.519 285.395 297.519 273.565C297.519 261.736 287.436 252.146 274.999 252.146C262.561 252.146 252.479 261.736 252.479 273.565C252.479 285.395 262.561 294.986 274.999 294.986Z" fill="#263238" stroke="#263238" stroke-linecap="round" stroke-linejoin="round"/>
<path d="M283.429 293.005C284.554 292.564 285.633 292.011 286.649 291.355" stroke="#6E6E6E" stroke-linecap="round" stroke-linejoin="round"/>
<path d="M255.299 263.755C255.299 263.755 249.979 278.155 258.749 287.855C264.919 294.695 273.419 295.475 279.869 294.025" stroke="#6E6E6E" stroke-linecap="round" stroke-linejoin="round"/>
<path d="M293.999 287.426C293.999 287.426 293.639 301.706 293.639 305.736C293.639 309.766 305.719 327.736 313.039 328.796C320.359 329.856 323.289 316.345 323.659 310.125C324.029 303.905 325.489 295.125 325.489 295.125C325.489 295.125 304.299 299.506 293.999 287.426Z" fill="white" stroke="#263238" stroke-linecap="round" stroke-linejoin="round"/>
<path d="M320.729 301.176L317.009 295.885C309.929 295.945 300.009 294.556 294.009 287.426C294.009 287.426 293.779 296.645 293.679 302.355C310.679 305.945 320.729 301.176 320.729 301.176Z" fill="#263238" stroke="#263238" stroke-linecap="round" stroke-linejoin="round"/>
<path d="M286.679 276.805C286.679 276.805 291.069 288.885 297.299 294.745C303.529 300.605 315.609 308.296 324.029 303.896C332.449 299.496 337.939 293.645 340.139 280.105C342.339 266.565 340.139 235.435 340.139 235.435C340.139 235.435 339.039 228.845 327.319 226.645C315.599 224.445 295.469 228.475 291.439 236.535C287.409 244.595 286.299 255.205 286.299 261.795C286.299 268.385 286.679 276.805 286.679 276.805Z" fill="white" stroke="#263238" stroke-linecap="round" stroke-linejoin="round"/>
<path d="M314.089 267.245C315.027 267.245 315.789 265.978 315.789 264.415C315.789 262.853 315.027 261.585 314.089 261.585C313.15 261.585 312.389 262.853 312.389 264.415C312.389 265.978 313.15 267.245 314.089 267.245Z" fill="#263238" stroke="#263238" stroke-linecap="round" stroke-linejoin="round"/>
<path d="M333.349 263.085C333.349 264.655 332.589 265.926 331.649 265.926C330.709 265.926 329.949 264.655 329.949 263.085C329.949 261.515 330.709 260.255 331.649 260.255C332.589 260.255 333.349 261.525 333.349 263.085Z" fill="#263238" stroke="#263238" stroke-linecap="round" stroke-linejoin="round"/>
<path d="M308.989 258.185C308.989 258.185 310.499 253.275 316.919 254.025" stroke="#263238" stroke-linecap="round" stroke-linejoin="round"/>
<path d="M327.869 254.005C327.869 254.005 331.649 248.726 336.929 255.516" stroke="#263238" stroke-linecap="round" stroke-linejoin="round"/>
<path d="M327.869 265.005C327.869 265.005 326.359 269.155 327.869 271.005C329.379 272.855 330.139 276.676 327.489 277.426C325.525 277.911 323.511 278.166 321.489 278.185" stroke="#263238" stroke-linecap="round" stroke-linejoin="round"/>
<path d="M312.769 284.605C312.769 284.605 317.679 289.145 327.489 286.875" stroke="#263238" stroke-linecap="round" stroke-linejoin="round"/>
<path d="M333.909 234.775L341.459 252.516C341.459 252.516 350.149 245.726 348.639 234.396C347.129 223.066 340.709 222.315 340.709 222.315L333.909 234.775Z" fill="#263238" stroke="#263238" stroke-linecap="round" stroke-linejoin="round"/>
<path d="M284.479 259.595C284.479 259.595 285.899 264.596 290.289 261.296C294.679 257.996 299.489 247.516 299.489 247.516C299.489 247.516 293.639 255.205 297.299 257.405C300.959 259.605 316.299 255.565 333.179 239.095C350.059 222.625 346.729 213.095 338.669 206.505C330.609 199.915 312.309 210.505 312.309 210.505C312.309 210.505 299.489 206.505 283.389 215.995C267.289 225.485 270.199 247.855 272.769 251.875C275.339 255.895 275.699 263.255 284.479 259.595Z" fill="#263238" stroke="#263238" stroke-linecap="round" stroke-linejoin="round"/>
<path d="M288.469 263.595C288.469 263.595 285.539 254.435 280.779 254.805C276.019 255.175 273.089 269.805 278.949 276.405C284.809 283.005 288.099 277.505 288.099 277.505" fill="white"/>
<path d="M288.469 263.595C288.469 263.595 285.539 254.435 280.779 254.805C276.019 255.175 273.089 269.805 278.949 276.405C284.809 283.005 288.099 277.505 288.099 277.505" stroke="#263238" stroke-linecap="round" stroke-linejoin="round"/>
<path d="M285.879 276.005C285.881 276.473 285.744 276.93 285.486 277.319C285.228 277.709 284.86 278.013 284.429 278.193C283.998 278.373 283.523 278.421 283.064 278.331C282.606 278.241 282.184 278.017 281.853 277.688C281.522 277.358 281.297 276.938 281.205 276.48C281.113 276.022 281.159 275.547 281.337 275.115C281.516 274.683 281.818 274.314 282.206 274.054C282.595 273.794 283.051 273.655 283.519 273.655C284.143 273.655 284.742 273.903 285.184 274.343C285.626 274.784 285.876 275.381 285.879 276.005V276.005Z" fill="#92E3A9" stroke="#263238" stroke-linecap="round" stroke-linejoin="round"/>
<path d="M333.549 332.826L344.549 356.625C344.549 356.625 386.289 381.155 388.849 382.255C391.409 383.355 398.369 389.945 399.469 398.725C400.569 407.505 395.469 412.646 389.219 412.646C382.969 412.646 377.139 411.175 372.379 407.155C367.619 403.135 335.759 363.585 335.759 363.585C335.759 363.585 328.809 359.585 326.979 358.085C325.149 356.585 323.309 352.595 323.309 352.595C323.309 352.595 319.649 354.425 317.089 354.065C314.529 353.705 310.499 345.275 310.499 345.275C310.499 345.275 314.499 332.095 315.629 330.275C316.759 328.455 326.629 328.076 326.629 328.076L333.549 332.826Z" fill="white" stroke="#263238" stroke-linecap="round" stroke-linejoin="round"/>
<path d="M318.529 348.935L322.559 347.465L323.289 349.305V352.595" stroke="#263238" stroke-linecap="round" stroke-linejoin="round"/>
<path d="M295.469 353.005L304.619 325.175C304.619 325.175 315.239 321.175 318.169 320.415C321.099 319.655 329.879 327.415 331.719 327.735C333.559 328.055 334.639 332.495 333.549 332.865C332.459 333.235 328.789 331.395 328.789 331.395L317.789 333.235C317.789 333.235 314.499 350.435 310.839 354.465C307.834 357.492 304.519 360.193 300.949 362.525C300.949 362.525 265.439 405.005 262.879 409.005C260.319 413.005 247.879 420.355 239.079 415.225C230.279 410.095 235.079 397.655 237.619 393.225C240.159 388.795 295.469 353.005 295.469 353.005Z" fill="white" stroke="#263238" stroke-linecap="round" stroke-linejoin="round"/>
<path d="M331.719 327.695L322.299 325.655L315.619 327.146" stroke="#263238" stroke-linecap="round" stroke-linejoin="round"/>
<path d="M311.639 324.565L321.559 322.695L324.529 323.065" stroke="#263238" stroke-linecap="round" stroke-linejoin="round"/>
<path d="M180.649 227.415C180.649 227.415 187.249 244.995 186.149 262.565C185.049 280.135 190.539 337.625 192.009 343.845C193.479 350.065 195.299 360.695 195.299 360.695C195.299 360.695 252.779 388.516 263.039 392.546C270.57 395.363 278.272 397.701 286.099 399.546C286.099 399.546 307.699 392.215 309.899 390.385C312.099 388.555 317.589 391.115 317.589 391.115C317.589 391.115 329.309 394.416 330.039 395.516C330.769 396.616 330.399 411.255 330.399 411.255C330.399 411.255 331.869 415.255 330.769 415.655C329.669 416.055 317.589 418.945 313.559 417.845C309.529 416.745 298.919 411.986 298.919 411.986C298.919 411.986 290.859 414.915 286.829 414.185C282.799 413.455 277.679 412.355 277.679 412.355C277.679 412.355 209.579 401.355 191.269 396.975C172.959 392.595 161.619 390.025 159.789 383.435C157.959 376.845 139.279 295.925 138.549 291.535" fill="#7D7D7D"/>
<path d="M180.649 227.415C180.649 227.415 187.249 244.995 186.149 262.565C185.049 280.135 190.539 337.625 192.009 343.845C193.479 350.065 195.299 360.695 195.299 360.695C195.299 360.695 252.779 388.516 263.039 392.546C270.57 395.363 278.272 397.701 286.099 399.546C286.099 399.546 307.699 392.215 309.899 390.385C312.099 388.555 317.589 391.115 317.589 391.115C317.589 391.115 329.309 394.416 330.039 395.516C330.769 396.616 330.399 411.255 330.399 411.255C330.399 411.255 331.869 415.255 330.769 415.655C329.669 416.055 317.589 418.945 313.559 417.845C309.529 416.745 298.919 411.986 298.919 411.986C298.919 411.986 290.859 414.915 286.829 414.185C282.799 413.455 277.679 412.355 277.679 412.355C277.679 412.355 209.579 401.355 191.269 396.975C172.959 392.595 161.619 390.025 159.789 383.435C157.959 376.845 139.279 295.925 138.549 291.535" stroke="#263238" stroke-linecap="round" stroke-linejoin="round"/>
<path d="M303.439 403.715H326.299C328.5 403.715 330.611 404.59 332.168 406.147C333.724 407.703 334.599 409.814 334.599 412.016V418.016H295.139V412.016C295.139 409.814 296.013 407.703 297.57 406.147C299.126 404.59 301.237 403.715 303.439 403.715V403.715Z" fill="#263238" stroke="#263238" stroke-linecap="round" stroke-linejoin="round"/>
<path d="M313.559 417.805C317.559 418.905 329.669 415.975 330.769 415.615C331.869 415.255 330.399 411.215 330.399 411.215C330.399 411.215 330.769 396.575 330.039 395.475C329.309 394.375 317.589 391.076 317.589 391.076C317.589 391.076 312.099 388.515 309.899 390.345C307.699 392.175 286.099 399.505 286.099 399.505C278.272 397.661 270.57 395.323 263.039 392.505C259.409 391.085 249.889 386.685 239.089 381.595C225.299 385.295 224.189 397.325 224.529 403.315C249.529 407.735 277.679 412.315 277.679 412.315C277.679 412.315 282.809 413.416 286.829 414.146C290.849 414.876 298.919 411.945 298.919 411.945C298.919 411.945 309.539 416.705 313.559 417.805Z" fill="white" stroke="#263238" stroke-linecap="round" stroke-linejoin="round"/>
<path d="M317.219 394.745C317.219 394.745 323.449 402.065 325.639 404.995C327.829 407.925 330.399 411.215 330.399 411.215" stroke="#263238" stroke-linecap="round" stroke-linejoin="round"/>
<path d="M308.069 396.935C308.069 396.935 317.589 406.825 320.149 408.655C322.709 410.485 326.009 416.706 326.009 416.706" stroke="#263238" stroke-linecap="round" stroke-linejoin="round"/>
<path d="M300.379 403.165C300.379 403.165 312.459 411.946 313.929 413.046C315.608 414.537 317.197 416.126 318.689 417.805" stroke="#263238" stroke-linecap="round" stroke-linejoin="round"/>
<path d="M247.359 385.505C244.749 384.295 241.969 382.995 239.089 381.635C225.299 385.335 224.189 397.365 224.529 403.355L234.449 405.095C235.669 394.175 243.009 388.155 247.359 385.505Z" fill="#92E3A9" stroke="#263238" stroke-linecap="round" stroke-linejoin="round"/>
<path d="M359.799 411.565H508.659V418.005H353.929V417.385C353.944 415.838 354.569 414.359 355.668 413.27C356.767 412.18 358.251 411.568 359.799 411.565V411.565Z" fill="#263238" stroke="#263238" stroke-linecap="round" stroke-linejoin="round"/>
<path d="M508.659 411.565H414.519V418.055H508.659V411.565Z" fill="white" stroke="#263238" stroke-linecap="round" stroke-linejoin="round"/>
<path d="M518.939 338.525H424.799L414.519 411.016H508.659L518.939 338.525Z" fill="white" stroke="#263238" stroke-linecap="round" stroke-linejoin="round"/>
<path d="M508.659 411.005L517.659 347.355C505.489 356.825 487.949 371.455 467.869 388.105C452.539 400.865 439.699 407.535 430.299 411.005H508.659Z" fill="#263238" stroke="#263238" stroke-linecap="round" stroke-linejoin="round"/>
<path d="M468.989 386.665C473.97 386.665 478.009 383.276 478.009 379.095C478.009 374.915 473.97 371.525 468.989 371.525C464.007 371.525 459.969 374.915 459.969 379.095C459.969 383.276 464.007 386.665 468.989 386.665Z" fill="white" stroke="#263238" stroke-linecap="round" stroke-linejoin="round"/>
<path d="M546.299 418.055H555.149" stroke="#263238" stroke-linecap="round" stroke-linejoin="round"/>
<path d="M10.2986 418.055H539.299" stroke="#263238" stroke-linecap="round" stroke-linejoin="round"/>
</svg>
